STARTFONT 2.1
COMMENT
COMMENT Converted from OpenType font "Patriot-Normal.otf" by "otf2bdf 3.0".
COMMENT
FONT -FreeType-Patriot Normal-Medium-R-Normal--17-120-100-100-P-80-ISO10646-1
SIZE 12 100 100
FONTBOUNDINGBOX 26 21 -6 -4
STARTPROPERTIES 19
FOUNDRY "FreeType"
FAMILY_NAME "Patriot Normal"
WEIGHT_NAME "Medium"
SLANT "R"
SETWIDTH_NAME "Normal"
ADD_STYLE_NAME ""
PIXEL_SIZE 17
POINT_SIZE 120
RESOLUTION_X 100
RESOLUTION_Y 100
SPACING "P"
AVERAGE_WIDTH 80
CHARSET_REGISTRY "ISO10646"
CHARSET_ENCODING "1"
FONT_ASCENT 17
FONT_DESCENT 3
COPYRIGHT "Copyright © 2020 by Behalf Studio. All rights reserved."
_OTF_FONTFILE "Patriot-Normal.otf"
_OTF_PSNAME "Patriot-Normal"
ENDPROPERTIES
CHARS 426
STARTCHAR 0020
ENCODING 32
SWIDTH 300 0
DWIDTH 5 0
BBX 0 0 0 0
BITMAP
ENDCHAR
STARTCHAR 0021
ENCODING 33
SWIDTH 240 0
DWIDTH 4 0
BBX 2 12 1 0
BITMAP
C0
C0
C0
C0
C0
C0
C0
C0
00
00
C0
C0
ENDCHAR
STARTCHAR 0022
ENCODING 34
SWIDTH 240 0
DWIDTH 4 0
BBX 3 4 1 8
BITMAP
A0
A0
A0
A0
ENDCHAR
STARTCHAR 0023
ENCODING 35
SWIDTH 600 0
DWIDTH 10 0
BBX 9 12 1 0
BITMAP
1200
3200
2200
2200
FF80
2200
2200
2400
FF00
4400
4400
4400
ENDCHAR
STARTCHAR 0024
ENCODING 36
SWIDTH 480 0
DWIDTH 8 0
BBX 7 14 1 -1
BITMAP
10
38
54
D6
50
70
30
1C
16
12
92
D6
7C
10
ENDCHAR
STARTCHAR 0025
ENCODING 37
SWIDTH 840 0
DWIDTH 14 0
BBX 12 12 1 0
BITMAP
7060
C840
8880
8900
D900
3200
0400
05E0
0910
1110
3110
21E0
ENDCHAR
STARTCHAR 0026
ENCODING 38
SWIDTH 600 0
DWIDTH 10 0
BBX 9 12 1 0
BITMAP
3800
6C00
C000
C000
4000
7F80
6100
8100
8100
8200
C600
7C00
ENDCHAR
STARTCHAR 0027
ENCODING 39
SWIDTH 120 0
DWIDTH 2 0
BBX 1 4 1 8
BITMAP
80
80
80
80
ENDCHAR
STARTCHAR 0028
ENCODING 40
SWIDTH 300 0
DWIDTH 5 0
BBX 3 15 1 -2
BITMAP
20
60
40
40
80
80
80
80
80
80
80
40
40
60
20
ENDCHAR
STARTCHAR 0029
ENCODING 41
SWIDTH 300 0
DWIDTH 5 0
BBX 3 15 1 -2
BITMAP
80
40
40
20
20
20
20
20
20
20
20
20
40
40
80
ENDCHAR
STARTCHAR 002A
ENCODING 42
SWIDTH 420 0
DWIDTH 7 0
BBX 6 6 1 6
BITMAP
20
20
FC
30
58
48
ENDCHAR
STARTCHAR 002B
ENCODING 43
SWIDTH 540 0
DWIDTH 9 0
BBX 7 7 1 2
BITMAP
10
10
10
FE
10
10
10
ENDCHAR
STARTCHAR 002C
ENCODING 44
SWIDTH 240 0
DWIDTH 4 0
BBX 2 3 1 -2
BITMAP
40
80
80
ENDCHAR
STARTCHAR 002D
ENCODING 45
SWIDTH 420 0
DWIDTH 7 0
BBX 5 1 1 3
BITMAP
F8
ENDCHAR
STARTCHAR 002E
ENCODING 46
SWIDTH 240 0
DWIDTH 4 0
BBX 2 2 1 0
BITMAP
C0
C0
ENDCHAR
STARTCHAR 002F
ENCODING 47
SWIDTH 360 0
DWIDTH 6 0
BBX 4 12 1 0
BITMAP
10
10
10
20
20
20
20
40
40
40
80
80
ENDCHAR
STARTCHAR 0030
ENCODING 48
SWIDTH 660 0
DWIDTH 11 0
BBX 10 12 1 0
BITMAP
1E00
6300
C080
80C0
8040
8040
8040
8040
8040
C080
6180
3F00
ENDCHAR
STARTCHAR 0031
ENCODING 49
SWIDTH 240 0
DWIDTH 4 0
BBX 3 12 1 0
BITMAP
60
E0
60
60
60
60
60
60
60
60
60
60
ENDCHAR
STARTCHAR 0032
ENCODING 50
SWIDTH 480 0
DWIDTH 8 0
BBX 7 12 1 0
BITMAP
38
C4
82
82
02
06
04
08
10
20
40
FE
ENDCHAR
STARTCHAR 0033
ENCODING 51
SWIDTH 480 0
DWIDTH 8 0
BBX 7 12 1 0
BITMAP
FE
0C
18
30
78
C4
02
02
02
02
84
78
ENDCHAR
STARTCHAR 0034
ENCODING 52
SWIDTH 480 0
DWIDTH 8 0
BBX 8 12 0 0
BITMAP
06
1E
22
62
42
C2
82
FF
02
02
02
02
ENDCHAR
STARTCHAR 0035
ENCODING 53
SWIDTH 480 0
DWIDTH 8 0
BBX 7 12 1 0
BITMAP
FE
80
80
80
FC
C6
02
02
02
02
86
7C
ENDCHAR
STARTCHAR 0036
ENCODING 54
SWIDTH 600 0
DWIDTH 10 0
BBX 8 12 1 0
BITMAP
08
18
30
20
7E
C3
81
81
81
81
43
3E
ENDCHAR
STARTCHAR 0037
ENCODING 55
SWIDTH 420 0
DWIDTH 7 0
BBX 6 12 1 0
BITMAP
FC
04
0C
08
08
FC
10
30
20
20
40
40
ENDCHAR
STARTCHAR 0038
ENCODING 56
SWIDTH 540 0
DWIDTH 9 0
BBX 9 12 0 0
BITMAP
1C00
3200
2200
2200
1E00
6300
4180
C080
C080
4180
6100
3E00
ENDCHAR
STARTCHAR 0039
ENCODING 57
SWIDTH 540 0
DWIDTH 9 0
BBX 8 12 1 0
BITMAP
3C
66
81
81
81
81
83
66
3E
0C
08
10
ENDCHAR
STARTCHAR 003A
ENCODING 58
SWIDTH 240 0
DWIDTH 4 0
BBX 2 8 1 0
BITMAP
C0
C0
00
00
00
00
C0
C0
ENDCHAR
STARTCHAR 003B
ENCODING 59
SWIDTH 240 0
DWIDTH 4 0
BBX 3 10 1 -2
BITMAP
60
60
00
00
00
00
00
40
80
80
ENDCHAR
STARTCHAR 003C
ENCODING 60
SWIDTH 540 0
DWIDTH 9 0
BBX 7 6 1 3
BITMAP
06
38
C0
E0
1C
02
ENDCHAR
STARTCHAR 003D
ENCODING 61
SWIDTH 540 0
DWIDTH 9 0
BBX 7 5 1 3
BITMAP
FE
00
00
00
FE
ENDCHAR
STARTCHAR 003E
ENCODING 62
SWIDTH 540 0
DWIDTH 9 0
BBX 7 6 1 3
BITMAP
E0
18
06
0E
30
C0
ENDCHAR
STARTCHAR 003F
ENCODING 63
SWIDTH 360 0
DWIDTH 6 0
BBX 5 12 1 0
BITMAP
70
D8
88
08
10
30
20
20
00
00
60
60
ENDCHAR
STARTCHAR 0040
ENCODING 64
SWIDTH 780 0
DWIDTH 13 0
BBX 11 12 1 0
BITMAP
0F00
30C0
4020
8F20
8920
9120
9120
9B20
8DC0
4000
2040
1F80
ENDCHAR
STARTCHAR 0041
ENCODING 65
SWIDTH 540 0
DWIDTH 9 0
BBX 8 12 1 0
BITMAP
38
4C
84
86
86
86
86
86
86
86
86
FF
ENDCHAR
STARTCHAR 0042
ENCODING 66
SWIDTH 540 0
DWIDTH 9 0
BBX 8 12 1 0
BITMAP
7C
46
41
41
41
FE
FF
41
41
41
43
7E
ENDCHAR
STARTCHAR 0043
ENCODING 67
SWIDTH 660 0
DWIDTH 11 0
BBX 10 12 1 0
BITMAP
1F00
31C0
4040
C000
8000
8000
8000
8000
8000
C000
60C0
1F80
ENDCHAR
STARTCHAR 0044
ENCODING 68
SWIDTH 600 0
DWIDTH 10 0
BBX 9 12 1 0
BITMAP
F000
9E00
8300
8100
8080
8080
8080
8080
8180
8100
8600
FC00
ENDCHAR
STARTCHAR 0045
ENCODING 69
SWIDTH 480 0
DWIDTH 8 0
BBX 8 12 0 0
BITMAP
3C
20
20
20
20
20
FE
20
20
20
20
3F
ENDCHAR
STARTCHAR 0046
ENCODING 70
SWIDTH 420 0
DWIDTH 7 0
BBX 7 12 0 0
BITMAP
3E
20
20
20
20
20
FE
20
20
20
20
20
ENDCHAR
STARTCHAR 0047
ENCODING 71
SWIDTH 780 0
DWIDTH 13 0
BBX 13 12 1 0
BITMAP
1F00
31C0
4040
C000
8000
8000
87F8
8030
8020
4060
60C0
1F80
ENDCHAR
STARTCHAR 0048
ENCODING 72
SWIDTH 540 0
DWIDTH 9 0
BBX 8 12 0 0
BITMAP
21
21
21
21
21
FF
21
21
21
21
21
21
ENDCHAR
STARTCHAR 0049
ENCODING 73
SWIDTH 120 0
DWIDTH 2 0
BBX 3 13 0 0
BITMAP
40
E0
40
20
00
00
40
40
40
40
40
40
40
ENDCHAR
STARTCHAR 004A
ENCODING 74
SWIDTH 420 0
DWIDTH 7 0
BBX 7 12 0 0
BITMAP
0E
02
02
02
02
02
02
02
02
06
C4
7C
ENDCHAR
STARTCHAR 004B
ENCODING 75
SWIDTH 480 0
DWIDTH 8 0
BBX 8 12 0 0
BITMAP
22
22
22
22
22
FC
FE
23
21
21
21
21
ENDCHAR
STARTCHAR 004C
ENCODING 76
SWIDTH 420 0
DWIDTH 7 0
BBX 6 12 1 0
BITMAP
80
80
80
80
80
80
80
80
80
80
80
FC
ENDCHAR
STARTCHAR 004D
ENCODING 77
SWIDTH 840 0
DWIDTH 14 0
BBX 12 12 1 0
BITMAP
8010
C310
E390
92D0
8E30
8610
8210
8210
8210
8210
8210
8210
ENDCHAR
STARTCHAR 004E
ENCODING 78
SWIDTH 480 0
DWIDTH 8 0
BBX 7 12 1 0
BITMAP
86
C6
E6
96
8E
86
86
86
86
86
86
86
ENDCHAR
STARTCHAR 004F
ENCODING 79
SWIDTH 780 0
DWIDTH 13 0
BBX 12 12 1 0
BITMAP
1F00
31C0
4060
C020
8030
8010
8010
8010
8030
4060
60C0
1F80
ENDCHAR
STARTCHAR 0050
ENCODING 80
SWIDTH 540 0
DWIDTH 9 0
BBX 9 12 0 0
BITMAP
7C00
6700
6180
6080
6080
6100
FF00
6000
6000
6000
6000
6000
ENDCHAR
STARTCHAR 0051
ENCODING 81
SWIDTH 780 0
DWIDTH 13 0
BBX 12 12 1 0
BITMAP
1F00
31C0
4060
C020
8030
8010
8010
8010
8030
40E0
60C0
1FA0
ENDCHAR
STARTCHAR 0052
ENCODING 82
SWIDTH 540 0
DWIDTH 9 0
BBX 9 12 0 0
BITMAP
3C00
2700
2180
2080
2080
2180
FF00
2300
2100
2100
2100
2100
ENDCHAR
STARTCHAR 0053
ENCODING 83
SWIDTH 480 0
DWIDTH 8 0
BBX 7 12 1 0
BITMAP
78
CC
84
80
40
30
18
04
06
86
C4
7C
ENDCHAR
STARTCHAR 0054
ENCODING 84
SWIDTH 480 0
DWIDTH 8 0
BBX 8 12 0 0
BITMAP
FF
18
18
18
18
18
18
18
18
18
18
18
ENDCHAR
STARTCHAR 0055
ENCODING 85
SWIDTH 480 0
DWIDTH 8 0
BBX 7 12 1 0
BITMAP
86
86
86
86
86
86
86
86
86
84
C4
78
ENDCHAR
STARTCHAR 0056
ENCODING 86
SWIDTH 420 0
DWIDTH 7 0
BBX 7 12 0 0
BITMAP
82
82
82
82
82
82
86
C6
C4
44
6C
38
ENDCHAR
STARTCHAR 0057
ENCODING 87
SWIDTH 720 0
DWIDTH 12 0
BBX 12 12 0 0
BITMAP
8210
8210
8210
8210
8210
8210
8610
C610
C610
4720
6D20
38C0
ENDCHAR
STARTCHAR 0058
ENCODING 88
SWIDTH 480 0
DWIDTH 8 0
BBX 7 12 1 0
BITMAP
86
86
86
84
CC
78
C4
86
86
86
86
86
ENDCHAR
STARTCHAR 0059
ENCODING 89
SWIDTH 480 0
DWIDTH 8 0
BBX 7 12 1 0
BITMAP
86
86
86
86
86
84
84
C4
78
30
30
30
ENDCHAR
STARTCHAR 005A
ENCODING 90
SWIDTH 480 0
DWIDTH 8 0
BBX 8 12 0 0
BITMAP
FF
03
02
04
0C
08
18
10
20
60
40
FF
ENDCHAR
STARTCHAR 005B
ENCODING 91
SWIDTH 180 0
DWIDTH 3 0
BBX 2 15 1 -2
BITMAP
80
80
80
80
80
80
80
80
80
80
80
80
80
80
C0
ENDCHAR
STARTCHAR 005C
ENCODING 92
SWIDTH 360 0
DWIDTH 6 0
BBX 4 12 1 0
BITMAP
80
80
40
40
40
40
20
20
20
10
10
10
ENDCHAR
STARTCHAR 005D
ENCODING 93
SWIDTH 180 0
DWIDTH 3 0
BBX 2 15 1 -2
BITMAP
C0
40
40
40
40
40
40
40
40
40
40
40
40
40
C0
ENDCHAR
STARTCHAR 005E
ENCODING 94
SWIDTH 420 0
DWIDTH 7 0
BBX 5 4 1 6
BITMAP
30
50
48
88
ENDCHAR
STARTCHAR 005F
ENCODING 95
SWIDTH 480 0
DWIDTH 8 0
BBX 7 1 1 -2
BITMAP
FE
ENDCHAR
STARTCHAR 0060
ENCODING 96
SWIDTH 120 0
DWIDTH 2 0
BBX 2 2 0 13
BITMAP
80
40
ENDCHAR
STARTCHAR 0061
ENCODING 97
SWIDTH 540 0
DWIDTH 9 0
BBX 8 12 1 0
BITMAP
38
4C
84
86
86
86
86
86
86
86
86
FF
ENDCHAR
STARTCHAR 0062
ENCODING 98
SWIDTH 540 0
DWIDTH 9 0
BBX 8 12 1 0
BITMAP
7C
46
41
41
41
FE
FF
41
41
41
43
7E
ENDCHAR
STARTCHAR 0063
ENCODING 99
SWIDTH 660 0
DWIDTH 11 0
BBX 10 12 1 0
BITMAP
1F00
31C0
4040
C000
8000
8000
8000
8000
8000
C000
60C0
1F80
ENDCHAR
STARTCHAR 0064
ENCODING 100
SWIDTH 600 0
DWIDTH 10 0
BBX 9 12 1 0
BITMAP
F000
9E00
8300
8100
8080
8080
8080
8080
8180
8100
8600
FC00
ENDCHAR
STARTCHAR 0065
ENCODING 101
SWIDTH 480 0
DWIDTH 8 0
BBX 8 12 0 0
BITMAP
3C
20
20
20
20
20
FE
20
20
20
20
3F
ENDCHAR
STARTCHAR 0066
ENCODING 102
SWIDTH 420 0
DWIDTH 7 0
BBX 7 12 0 0
BITMAP
3E
20
20
20
20
20
FE
20
20
20
20
20
ENDCHAR
STARTCHAR 0067
ENCODING 103
SWIDTH 780 0
DWIDTH 13 0
BBX 13 12 1 0
BITMAP
1F00
31C0
4040
C000
8000
8000
87F8
8030
8020
4060
60C0
1F80
ENDCHAR
STARTCHAR 0068
ENCODING 104
SWIDTH 540 0
DWIDTH 9 0
BBX 8 12 0 0
BITMAP
21
21
21
21
21
FF
21
21
21
21
21
21
ENDCHAR
STARTCHAR 0069
ENCODING 105
SWIDTH 120 0
DWIDTH 2 0
BBX 3 13 0 0
BITMAP
40
E0
40
20
00
00
40
40
40
40
40
40
40
ENDCHAR
STARTCHAR 006A
ENCODING 106
SWIDTH 420 0
DWIDTH 7 0
BBX 7 12 0 0
BITMAP
0E
02
02
02
02
02
02
02
02
06
C4
7C
ENDCHAR
STARTCHAR 006B
ENCODING 107
SWIDTH 480 0
DWIDTH 8 0
BBX 8 12 0 0
BITMAP
22
22
22
22
22
FC
FE
23
21
21
21
21
ENDCHAR
STARTCHAR 006C
ENCODING 108
SWIDTH 420 0
DWIDTH 7 0
BBX 6 12 1 0
BITMAP
80
80
80
80
80
80
80
80
80
80
80
FC
ENDCHAR
STARTCHAR 006D
ENCODING 109
SWIDTH 840 0
DWIDTH 14 0
BBX 12 12 1 0
BITMAP
8010
C310
E390
92D0
8E30
8610
8210
8210
8210
8210
8210
8210
ENDCHAR
STARTCHAR 006E
ENCODING 110
SWIDTH 480 0
DWIDTH 8 0
BBX 7 12 1 0
BITMAP
86
C6
E6
96
8E
86
86
86
86
86
86
86
ENDCHAR
STARTCHAR 006F
ENCODING 111
SWIDTH 780 0
DWIDTH 13 0
BBX 12 12 1 0
BITMAP
1F00
31C0
4060
C020
8030
8010
8010
8010
8030
4060
60C0
1F80
ENDCHAR
STARTCHAR 0070
ENCODING 112
SWIDTH 540 0
DWIDTH 9 0
BBX 9 12 0 0
BITMAP
7C00
6700
6180
6080
6080
6100
FF00
6000
6000
6000
6000
6000
ENDCHAR
STARTCHAR 0071
ENCODING 113
SWIDTH 780 0
DWIDTH 13 0
BBX 12 12 1 0
BITMAP
1F00
31C0
4060
C020
8030
8010
8010
8010
8030
40E0
60C0
1FA0
ENDCHAR
STARTCHAR 0072
ENCODING 114
SWIDTH 540 0
DWIDTH 9 0
BBX 9 12 0 0
BITMAP
3C00
2700
2180
2080
2080
2180
FF00
2300
2100
2100
2100
2100
ENDCHAR
STARTCHAR 0073
ENCODING 115
SWIDTH 480 0
DWIDTH 8 0
BBX 7 12 1 0
BITMAP
78
CC
84
80
40
30
18
04
06
86
C4
7C
ENDCHAR
STARTCHAR 0074
ENCODING 116
SWIDTH 480 0
DWIDTH 8 0
BBX 8 12 0 0
BITMAP
FF
18
18
18
18
18
18
18
18
18
18
18
ENDCHAR
STARTCHAR 0075
ENCODING 117
SWIDTH 480 0
DWIDTH 8 0
BBX 7 12 1 0
BITMAP
86
86
86
86
86
86
86
86
86
84
C4
78
ENDCHAR
STARTCHAR 0076
ENCODING 118
SWIDTH 420 0
DWIDTH 7 0
BBX 7 12 0 0
BITMAP
82
82
82
82
82
82
86
C6
C4
44
6C
38
ENDCHAR
STARTCHAR 0077
ENCODING 119
SWIDTH 720 0
DWIDTH 12 0
BBX 12 12 0 0
BITMAP
8210
8210
8210
8210
8210
8210
8610
C610
C610
4720
6D20
38C0
ENDCHAR
STARTCHAR 0078
ENCODING 120
SWIDTH 480 0
DWIDTH 8 0
BBX 7 12 1 0
BITMAP
86
86
86
84
CC
78
C4
86
86
86
86
86
ENDCHAR
STARTCHAR 0079
ENCODING 121
SWIDTH 480 0
DWIDTH 8 0
BBX 7 12 1 0
BITMAP
86
86
86
86
86
84
84
C4
78
30
30
30
ENDCHAR
STARTCHAR 007A
ENCODING 122
SWIDTH 480 0
DWIDTH 8 0
BBX 8 12 0 0
BITMAP
FF
03
02
04
0C
08
18
10
20
60
40
FF
ENDCHAR
STARTCHAR 007B
ENCODING 123
SWIDTH 300 0
DWIDTH 5 0
BBX 4 15 1 -2
BITMAP
70
40
40
40
40
40
40
80
40
40
40
40
40
40
70
ENDCHAR
STARTCHAR 007C
ENCODING 124
SWIDTH 120 0
DWIDTH 2 0
BBX 1 14 1 -2
BITMAP
80
80
80
80
80
80
80
80
80
80
80
80
80
80
ENDCHAR
STARTCHAR 007D
ENCODING 125
SWIDTH 300 0
DWIDTH 5 0
BBX 4 15 1 -2
BITMAP
C0
40
40
40
40
40
20
30
20
40
40
40
40
40
C0
ENDCHAR
STARTCHAR 007E
ENCODING 126
SWIDTH 480 0
DWIDTH 8 0
BBX 7 2 1 4
BITMAP
FE
04
ENDCHAR
STARTCHAR 00A1
ENCODING 161
SWIDTH 240 0
DWIDTH 4 0
BBX 2 12 1 -2
BITMAP
C0
C0
00
00
C0
C0
C0
C0
C0
C0
C0
C0
ENDCHAR
STARTCHAR 00A2
ENCODING 162
SWIDTH 480 0
DWIDTH 8 0
BBX 7 10 1 1
BITMAP
10
38
56
90
90
90
90
52
3C
10
ENDCHAR
STARTCHAR 00A3
ENCODING 163
SWIDTH 480 0
DWIDTH 8 0
BBX 7 12 1 0
BITMAP
1E
32
40
40
40
60
FC
20
30
20
60
FE
ENDCHAR
STARTCHAR 00A4
ENCODING 164
SWIDTH 540 0
DWIDTH 9 0
BBX 7 7 1 2
BITMAP
9A
64
42
82
82
44
BA
ENDCHAR
STARTCHAR 00A5
ENCODING 165
SWIDTH 600 0
DWIDTH 10 0
BBX 8 12 1 0
BITMAP
81
C1
42
22
24
14
7E
08
7E
08
08
08
ENDCHAR
STARTCHAR 00A6
ENCODING 166
SWIDTH 120 0
DWIDTH 2 0
BBX 1 14 1 -2
BITMAP
80
80
80
80
80
00
00
00
00
80
80
80
80
80
ENDCHAR
STARTCHAR 00A7
ENCODING 167
SWIDTH 420 0
DWIDTH 7 0
BBX 6 14 1 -2
BITMAP
30
48
CC
40
30
78
84
84
78
30
08
88
C8
70
ENDCHAR
STARTCHAR 00A8
ENCODING 168
SWIDTH 300 0
DWIDTH 5 0
BBX 6 2 0 12
BITMAP
4C
CC
ENDCHAR
STARTCHAR 00A9
ENCODING 169
SWIDTH 840 0
DWIDTH 14 0
BBX 12 12 1 0
BITMAP
0F00
30C0
4020
8F10
9010
9010
9010
9010
8F10
4020
2040
1F80
ENDCHAR
STARTCHAR 00AB
ENCODING 171
SWIDTH 480 0
DWIDTH 8 0
BBX 7 8 1 1
BITMAP
16
24
48
90
D8
48
24
12
ENDCHAR
STARTCHAR 00AC
ENCODING 172
SWIDTH 540 0
DWIDTH 9 0
BBX 7 4 1 2
BITMAP
FE
02
02
02
ENDCHAR
STARTCHAR 00AE
ENCODING 174
SWIDTH 480 0
DWIDTH 8 0
BBX 6 6 1 6
BITMAP
78
B4
B4
B4
A4
78
ENDCHAR
STARTCHAR 00AF
ENCODING 175
SWIDTH 240 0
DWIDTH 4 0
BBX 5 1 0 13
BITMAP
F8
ENDCHAR
STARTCHAR 00B0
ENCODING 176
SWIDTH 300 0
DWIDTH 5 0
BBX 4 4 1 8
BITMAP
60
90
90
60
ENDCHAR
STARTCHAR 00B1
ENCODING 177
SWIDTH 540 0
DWIDTH 9 0
BBX 7 7 1 2
BITMAP
10
10
FE
10
10
00
FE
ENDCHAR
STARTCHAR 00B4
ENCODING 180
SWIDTH 120 0
DWIDTH 2 0
BBX 2 2 0 13
BITMAP
40
C0
ENDCHAR
STARTCHAR 00B6
ENCODING 182
SWIDTH 420 0
DWIDTH 7 0
BBX 6 14 1 -2
BITMAP
34
74
F4
F4
F4
74
34
14
14
14
14
14
14
14
ENDCHAR
STARTCHAR 00B7
ENCODING 183
SWIDTH 240 0
DWIDTH 4 0
BBX 2 2 1 3
BITMAP
C0
C0
ENDCHAR
STARTCHAR 00B8
ENCODING 184
SWIDTH 180 0
DWIDTH 3 0
BBX 3 4 0 -4
BITMAP
40
20
A0
40
ENDCHAR
STARTCHAR 00BB
ENCODING 187
SWIDTH 480 0
DWIDTH 8 0
BBX 6 8 1 1
BITMAP
90
48
2C
34
24
6C
48
90
ENDCHAR
STARTCHAR 00BF
ENCODING 191
SWIDTH 360 0
DWIDTH 6 0
BBX 5 12 1 -2
BITMAP
30
30
00
00
20
20
60
40
80
88
D8
70
ENDCHAR
STARTCHAR 00C0
ENCODING 192
SWIDTH 540 0
DWIDTH 9 0
BBX 8 15 1 0
BITMAP
20
10
00
38
4C
84
86
86
86
86
86
86
86
86
FF
ENDCHAR
STARTCHAR 00C1
ENCODING 193
SWIDTH 540 0
DWIDTH 9 0
BBX 8 15 1 0
BITMAP
08
10
00
38
4C
84
86
86
86
86
86
86
86
86
FF
ENDCHAR
STARTCHAR 00C2
ENCODING 194
SWIDTH 540 0
DWIDTH 9 0
BBX 8 15 1 0
BITMAP
30
68
00
38
4C
84
86
86
86
86
86
86
86
86
FF
ENDCHAR
STARTCHAR 00C3
ENCODING 195
SWIDTH 540 0
DWIDTH 9 0
BBX 8 15 1 0
BITMAP
60
18
00
38
4C
84
86
86
86
86
86
86
86
86
FF
ENDCHAR
STARTCHAR 00C4
ENCODING 196
SWIDTH 540 0
DWIDTH 9 0
BBX 8 15 1 0
BITMAP
4C
EC
40
38
4C
84
86
86
86
86
86
86
86
86
FF
ENDCHAR
STARTCHAR 00C5
ENCODING 197
SWIDTH 540 0
DWIDTH 9 0
BBX 8 16 1 0
BITMAP
30
48
28
10
38
4C
84
86
86
86
86
86
86
86
86
FF
ENDCHAR
STARTCHAR 00C7
ENCODING 199
SWIDTH 660 0
DWIDTH 11 0
BBX 10 16 1 -4
BITMAP
1F00
31C0
4040
C000
8000
8000
8000
8000
8000
C000
60C0
1F80
0400
0200
1200
0C00
ENDCHAR
STARTCHAR 00C8
ENCODING 200
SWIDTH 480 0
DWIDTH 8 0
BBX 8 15 0 0
BITMAP
20
10
00
3C
20
20
20
20
20
FE
20
20
20
20
3F
ENDCHAR
STARTCHAR 00C9
ENCODING 201
SWIDTH 480 0
DWIDTH 8 0
BBX 8 15 0 0
BITMAP
08
08
00
3C
20
20
20
20
20
FE
20
20
20
20
3F
ENDCHAR
STARTCHAR 00CA
ENCODING 202
SWIDTH 480 0
DWIDTH 8 0
BBX 8 15 0 0
BITMAP
18
2C
00
3C
20
20
20
20
20
FE
20
20
20
20
3F
ENDCHAR
STARTCHAR 00CB
ENCODING 203
SWIDTH 480 0
DWIDTH 8 0
BBX 8 15 0 0
BITMAP
64
66
00
3C
20
20
20
20
20
FE
20
20
20
20
3F
ENDCHAR
STARTCHAR 00CC
ENCODING 204
SWIDTH 120 0
DWIDTH 2 0
BBX 2 10 0 0
BITMAP
80
40
00
40
40
40
40
40
40
40
ENDCHAR
STARTCHAR 00CD
ENCODING 205
SWIDTH 120 0
DWIDTH 2 0
BBX 2 10 1 0
BITMAP
40
80
00
80
80
80
80
80
80
80
ENDCHAR
STARTCHAR 00CE
ENCODING 206
SWIDTH 120 0
DWIDTH 2 0
BBX 5 10 -1 0
BITMAP
70
88
00
20
20
20
20
20
20
20
ENDCHAR
STARTCHAR 00CF
ENCODING 207
SWIDTH 120 0
DWIDTH 2 0
BBX 5 10 -1 0
BITMAP
D8
D8
00
20
20
20
20
20
20
20
ENDCHAR
STARTCHAR 00D1
ENCODING 209
SWIDTH 480 0
DWIDTH 8 0
BBX 7 15 1 0
BITMAP
60
10
00
86
C6
E6
96
8E
86
86
86
86
86
86
86
ENDCHAR
STARTCHAR 00D2
ENCODING 210
SWIDTH 780 0
DWIDTH 13 0
BBX 12 15 1 0
BITMAP
0800
0400
0000
1F00
31C0
4060
C020
8030
8010
8010
8010
8030
4060
60C0
1F80
ENDCHAR
STARTCHAR 00D3
ENCODING 211
SWIDTH 780 0
DWIDTH 13 0
BBX 12 15 1 0
BITMAP
0200
0400
0000
1F00
31C0
4060
C020
8030
8010
8010
8010
8030
4060
60C0
1F80
ENDCHAR
STARTCHAR 00D4
ENCODING 212
SWIDTH 780 0
DWIDTH 13 0
BBX 12 15 1 0
BITMAP
0600
0B00
0000
1F00
31C0
4060
C020
8030
8010
8010
8010
8030
4060
60C0
1F80
ENDCHAR
STARTCHAR 00D5
ENCODING 213
SWIDTH 780 0
DWIDTH 13 0
BBX 12 15 1 0
BITMAP
0800
0600
0000
1F00
31C0
4060
C020
8030
8010
8010
8010
8030
4060
60C0
1F80
ENDCHAR
STARTCHAR 00D6
ENCODING 214
SWIDTH 780 0
DWIDTH 13 0
BBX 12 15 1 0
BITMAP
1900
1B80
0100
1F00
31C0
4060
C020
8030
8010
8010
8010
8030
4060
60C0
1F80
ENDCHAR
STARTCHAR 00D7
ENCODING 215
SWIDTH 480 0
DWIDTH 8 0
BBX 6 7 1 2
BITMAP
84
4C
38
30
68
C4
80
ENDCHAR
STARTCHAR 00D8
ENCODING 216
SWIDTH 780 0
DWIDTH 13 0
BBX 13 12 0 -1
BITMAP
0F90
18E0
2070
4090
4198
C308
C208
C418
4810
7030
3060
6FC0
ENDCHAR
STARTCHAR 00D9
ENCODING 217
SWIDTH 480 0
DWIDTH 8 0
BBX 7 15 1 0
BITMAP
20
20
00
86
86
86
86
86
86
86
86
86
84
C4
78
ENDCHAR
STARTCHAR 00DA
ENCODING 218
SWIDTH 480 0
DWIDTH 8 0
BBX 7 15 1 0
BITMAP
18
10
00
86
86
86
86
86
86
86
86
86
84
C4
78
ENDCHAR
STARTCHAR 00DB
ENCODING 219
SWIDTH 480 0
DWIDTH 8 0
BBX 7 15 1 0
BITMAP
30
68
00
86
86
86
86
86
86
86
86
86
84
C4
78
ENDCHAR
STARTCHAR 00DC
ENCODING 220
SWIDTH 480 0
DWIDTH 8 0
BBX 7 15 1 0
BITMAP
4C
EC
40
86
86
86
86
86
86
86
86
86
84
C4
78
ENDCHAR
STARTCHAR 00DD
ENCODING 221
SWIDTH 480 0
DWIDTH 8 0
BBX 7 15 1 0
BITMAP
18
10
00
86
86
86
86
86
84
84
C4
78
30
30
30
ENDCHAR
STARTCHAR 00E0
ENCODING 224
SWIDTH 540 0
DWIDTH 9 0
BBX 8 15 1 0
BITMAP
20
10
00
38
4C
84
86
86
86
86
86
86
86
86
FF
ENDCHAR
STARTCHAR 00E1
ENCODING 225
SWIDTH 540 0
DWIDTH 9 0
BBX 8 15 1 0
BITMAP
08
10
00
38
4C
84
86
86
86
86
86
86
86
86
FF
ENDCHAR
STARTCHAR 00E2
ENCODING 226
SWIDTH 540 0
DWIDTH 9 0
BBX 8 15 1 0
BITMAP
30
68
00
38
4C
84
86
86
86
86
86
86
86
86
FF
ENDCHAR
STARTCHAR 00E3
ENCODING 227
SWIDTH 540 0
DWIDTH 9 0
BBX 8 15 1 0
BITMAP
60
18
00
38
4C
84
86
86
86
86
86
86
86
86
FF
ENDCHAR
STARTCHAR 00E4
ENCODING 228
SWIDTH 540 0
DWIDTH 9 0
BBX 8 15 1 0
BITMAP
4C
EC
40
38
4C
84
86
86
86
86
86
86
86
86
FF
ENDCHAR
STARTCHAR 00E5
ENCODING 229
SWIDTH 540 0
DWIDTH 9 0
BBX 8 16 1 0
BITMAP
30
48
28
10
38
4C
84
86
86
86
86
86
86
86
86
FF
ENDCHAR
STARTCHAR 00E7
ENCODING 231
SWIDTH 660 0
DWIDTH 11 0
BBX 10 16 1 -4
BITMAP
1F00
31C0
4040
C000
8000
8000
8000
8000
8000
C000
60C0
1F80
0400
0200
1200
0C00
ENDCHAR
STARTCHAR 00E8
ENCODING 232
SWIDTH 480 0
DWIDTH 8 0
BBX 8 15 0 0
BITMAP
20
10
00
3C
20
20
20
20
20
FE
20
20
20
20
3F
ENDCHAR
STARTCHAR 00E9
ENCODING 233
SWIDTH 480 0
DWIDTH 8 0
BBX 8 15 0 0
BITMAP
08
08
00
3C
20
20
20
20
20
FE
20
20
20
20
3F
ENDCHAR
STARTCHAR 00EA
ENCODING 234
SWIDTH 480 0
DWIDTH 8 0
BBX 8 15 0 0
BITMAP
18
2C
00
3C
20
20
20
20
20
FE
20
20
20
20
3F
ENDCHAR
STARTCHAR 00EB
ENCODING 235
SWIDTH 480 0
DWIDTH 8 0
BBX 8 15 0 0
BITMAP
64
66
00
3C
20
20
20
20
20
FE
20
20
20
20
3F
ENDCHAR
STARTCHAR 00EC
ENCODING 236
SWIDTH 120 0
DWIDTH 2 0
BBX 2 10 0 0
BITMAP
80
40
00
40
40
40
40
40
40
40
ENDCHAR
STARTCHAR 00ED
ENCODING 237
SWIDTH 120 0
DWIDTH 2 0
BBX 2 10 1 0
BITMAP
40
80
00
80
80
80
80
80
80
80
ENDCHAR
STARTCHAR 00EE
ENCODING 238
SWIDTH 120 0
DWIDTH 2 0
BBX 5 10 -1 0
BITMAP
70
88
00
20
20
20
20
20
20
20
ENDCHAR
STARTCHAR 00EF
ENCODING 239
SWIDTH 120 0
DWIDTH 2 0
BBX 5 10 -1 0
BITMAP
D8
D8
00
20
20
20
20
20
20
20
ENDCHAR
STARTCHAR 00F1
ENCODING 241
SWIDTH 480 0
DWIDTH 8 0
BBX 7 15 1 0
BITMAP
60
10
00
86
C6
E6
96
8E
86
86
86
86
86
86
86
ENDCHAR
STARTCHAR 00F2
ENCODING 242
SWIDTH 780 0
DWIDTH 13 0
BBX 12 15 1 0
BITMAP
0800
0400
0000
1F00
31C0
4060
C020
8030
8010
8010
8010
8030
4060
60C0
1F80
ENDCHAR
STARTCHAR 00F3
ENCODING 243
SWIDTH 780 0
DWIDTH 13 0
BBX 12 15 1 0
BITMAP
0200
0400
0000
1F00
31C0
4060
C020
8030
8010
8010
8010
8030
4060
60C0
1F80
ENDCHAR
STARTCHAR 00F4
ENCODING 244
SWIDTH 780 0
DWIDTH 13 0
BBX 12 15 1 0
BITMAP
0600
0B00
0000
1F00
31C0
4060
C020
8030
8010
8010
8010
8030
4060
60C0
1F80
ENDCHAR
STARTCHAR 00F5
ENCODING 245
SWIDTH 780 0
DWIDTH 13 0
BBX 12 15 1 0
BITMAP
0800
0600
0000
1F00
31C0
4060
C020
8030
8010
8010
8010
8030
4060
60C0
1F80
ENDCHAR
STARTCHAR 00F6
ENCODING 246
SWIDTH 780 0
DWIDTH 13 0
BBX 12 15 1 0
BITMAP
1900
1B80
0100
1F00
31C0
4060
C020
8030
8010
8010
8010
8030
4060
60C0
1F80
ENDCHAR
STARTCHAR 00F7
ENCODING 247
SWIDTH 540 0
DWIDTH 9 0
BBX 7 7 1 2
BITMAP
10
18
00
FE
00
10
18
ENDCHAR
STARTCHAR 00F8
ENCODING 248
SWIDTH 780 0
DWIDTH 13 0
BBX 13 12 0 -1
BITMAP
0F90
18E0
2070
4090
4198
C308
C208
C418
4810
7030
3060
6FC0
ENDCHAR
STARTCHAR 00F9
ENCODING 249
SWIDTH 480 0
DWIDTH 8 0
BBX 7 15 1 0
BITMAP
20
20
00
86
86
86
86
86
86
86
86
86
84
C4
78
ENDCHAR
STARTCHAR 00FA
ENCODING 250
SWIDTH 480 0
DWIDTH 8 0
BBX 7 15 1 0
BITMAP
18
10
00
86
86
86
86
86
86
86
86
86
84
C4
78
ENDCHAR
STARTCHAR 00FB
ENCODING 251
SWIDTH 480 0
DWIDTH 8 0
BBX 7 15 1 0
BITMAP
30
68
00
86
86
86
86
86
86
86
86
86
84
C4
78
ENDCHAR
STARTCHAR 00FC
ENCODING 252
SWIDTH 480 0
DWIDTH 8 0
BBX 7 15 1 0
BITMAP
4C
EC
40
86
86
86
86
86
86
86
86
86
84
C4
78
ENDCHAR
STARTCHAR 00FD
ENCODING 253
SWIDTH 480 0
DWIDTH 8 0
BBX 7 15 1 0
BITMAP
18
10
00
86
86
86
86
86
84
84
C4
78
30
30
30
ENDCHAR
STARTCHAR 00FF
ENCODING 255
SWIDTH 480 0
DWIDTH 8 0
BBX 7 15 1 0
BITMAP
4C
EC
40
86
86
86
86
86
84
84
C4
78
30
30
30
ENDCHAR
STARTCHAR 0100
ENCODING 256
SWIDTH 540 0
DWIDTH 9 0
BBX 8 14 1 0
BITMAP
7C
00
38
4C
84
86
86
86
86
86
86
86
86
FF
ENDCHAR
STARTCHAR 0101
ENCODING 257
SWIDTH 540 0
DWIDTH 9 0
BBX 8 14 1 0
BITMAP
7C
00
38
4C
84
86
86
86
86
86
86
86
86
FF
ENDCHAR
STARTCHAR 0102
ENCODING 258
SWIDTH 540 0
DWIDTH 9 0
BBX 8 15 1 0
BITMAP
40
28
10
38
4C
84
86
86
86
86
86
86
86
86
FF
ENDCHAR
STARTCHAR 0103
ENCODING 259
SWIDTH 540 0
DWIDTH 9 0
BBX 8 15 1 0
BITMAP
40
28
10
38
4C
84
86
86
86
86
86
86
86
86
FF
ENDCHAR
STARTCHAR 0104
ENCODING 260
SWIDTH 540 0
DWIDTH 9 0
BBX 8 15 1 -3
BITMAP
38
4C
84
86
86
86
86
86
86
86
86
FF
02
04
03
ENDCHAR
STARTCHAR 0105
ENCODING 261
SWIDTH 540 0
DWIDTH 9 0
BBX 8 15 1 -3
BITMAP
38
4C
84
86
86
86
86
86
86
86
86
FF
02
04
03
ENDCHAR
STARTCHAR 0106
ENCODING 262
SWIDTH 660 0
DWIDTH 11 0
BBX 10 15 1 0
BITMAP
0200
0400
0000
1F00
31C0
4040
C000
8000
8000
8000
8000
8000
C000
60C0
1F80
ENDCHAR
STARTCHAR 0107
ENCODING 263
SWIDTH 660 0
DWIDTH 11 0
BBX 10 15 1 0
BITMAP
0200
0400
0000
1F00
31C0
4040
C000
8000
8000
8000
8000
8000
C000
60C0
1F80
ENDCHAR
STARTCHAR 010A
ENCODING 266
SWIDTH 660 0
DWIDTH 11 0
BBX 10 15 1 0
BITMAP
0600
0600
0000
1F00
31C0
4040
C000
8000
8000
8000
8000
8000
C000
60C0
1F80
ENDCHAR
STARTCHAR 010B
ENCODING 267
SWIDTH 660 0
DWIDTH 11 0
BBX 10 15 1 0
BITMAP
0600
0600
0000
1F00
31C0
4040
C000
8000
8000
8000
8000
8000
C000
60C0
1F80
ENDCHAR
STARTCHAR 010C
ENCODING 268
SWIDTH 660 0
DWIDTH 11 0
BBX 10 15 1 0
BITMAP
0900
0E00
0000
1F00
31C0
4040
C000
8000
8000
8000
8000
8000
C000
60C0
1F80
ENDCHAR
STARTCHAR 010D
ENCODING 269
SWIDTH 660 0
DWIDTH 11 0
BBX 10 15 1 0
BITMAP
0900
0E00
0000
1F00
31C0
4040
C000
8000
8000
8000
8000
8000
C000
60C0
1F80
ENDCHAR
STARTCHAR 010E
ENCODING 270
SWIDTH 600 0
DWIDTH 10 0
BBX 9 15 1 0
BITMAP
6800
3800
0000
F000
9E00
8300
8100
8080
8080
8080
8080
8180
8100
8600
FC00
ENDCHAR
STARTCHAR 010F
ENCODING 271
SWIDTH 600 0
DWIDTH 10 0
BBX 9 15 1 0
BITMAP
6800
3800
0000
F000
9E00
8300
8100
8080
8080
8080
8080
8180
8100
8600
FC00
ENDCHAR
STARTCHAR 0110
ENCODING 272
SWIDTH 660 0
DWIDTH 11 0
BBX 11 12 0 0
BITMAP
3C00
2780
20C0
2040
2060
FC60
FC60
2060
2040
20C0
2180
3E00
ENDCHAR
STARTCHAR 0111
ENCODING 273
SWIDTH 660 0
DWIDTH 11 0
BBX 11 12 0 0
BITMAP
3C00
2780
20C0
2040
2060
FC60
FC60
2060
2040
20C0
2180
3E00
ENDCHAR
STARTCHAR 0112
ENCODING 274
SWIDTH 480 0
DWIDTH 8 0
BBX 8 14 0 0
BITMAP
3C
00
3C
20
20
20
20
20
FE
20
20
20
20
3F
ENDCHAR
STARTCHAR 0113
ENCODING 275
SWIDTH 480 0
DWIDTH 8 0
BBX 8 14 0 0
BITMAP
3C
00
3C
20
20
20
20
20
FE
20
20
20
20
3F
ENDCHAR
STARTCHAR 0116
ENCODING 278
SWIDTH 480 0
DWIDTH 8 0
BBX 8 15 0 0
BITMAP
18
18
00
3C
20
20
20
20
20
FE
20
20
20
20
3F
ENDCHAR
STARTCHAR 0117
ENCODING 279
SWIDTH 480 0
DWIDTH 8 0
BBX 8 15 0 0
BITMAP
18
18
00
3C
20
20
20
20
20
FE
20
20
20
20
3F
ENDCHAR
STARTCHAR 0118
ENCODING 280
SWIDTH 480 0
DWIDTH 8 0
BBX 8 15 0 -3
BITMAP
3C
20
20
20
20
20
FE
20
20
20
20
3F
02
04
03
ENDCHAR
STARTCHAR 0119
ENCODING 281
SWIDTH 480 0
DWIDTH 8 0
BBX 8 15 0 -3
BITMAP
3C
20
20
20
20
20
FE
20
20
20
20
3F
02
04
03
ENDCHAR
STARTCHAR 011A
ENCODING 282
SWIDTH 480 0
DWIDTH 8 0
BBX 8 15 0 0
BITMAP
24
18
00
3C
20
20
20
20
20
FE
20
20
20
20
3F
ENDCHAR
STARTCHAR 011B
ENCODING 283
SWIDTH 480 0
DWIDTH 8 0
BBX 8 15 0 0
BITMAP
24
18
00
3C
20
20
20
20
20
FE
20
20
20
20
3F
ENDCHAR
STARTCHAR 011E
ENCODING 286
SWIDTH 780 0
DWIDTH 13 0
BBX 13 15 1 0
BITMAP
1100
0A00
0400
1F00
31C0
4040
C000
8000
8000
87F8
8030
8020
4060
60C0
1F80
ENDCHAR
STARTCHAR 011F
ENCODING 287
SWIDTH 780 0
DWIDTH 13 0
BBX 13 15 1 0
BITMAP
1100
0A00
0400
1F00
31C0
4040
C000
8000
8000
87F8
8030
8020
4060
60C0
1F80
ENDCHAR
STARTCHAR 0120
ENCODING 288
SWIDTH 780 0
DWIDTH 13 0
BBX 13 15 1 0
BITMAP
0600
0600
0000
1F00
31C0
4040
C000
8000
8000
87F8
8030
8020
4060
60C0
1F80
ENDCHAR
STARTCHAR 0121
ENCODING 289
SWIDTH 780 0
DWIDTH 13 0
BBX 13 15 1 0
BITMAP
0600
0600
0000
1F00
31C0
4040
C000
8000
8000
87F8
8030
8020
4060
60C0
1F80
ENDCHAR
STARTCHAR 0124
ENCODING 292
SWIDTH 540 0
DWIDTH 9 0
BBX 8 15 0 0
BITMAP
0C
12
00
21
21
21
21
21
FF
21
21
21
21
21
21
ENDCHAR
STARTCHAR 0125
ENCODING 293
SWIDTH 540 0
DWIDTH 9 0
BBX 8 15 0 0
BITMAP
0C
12
00
21
21
21
21
21
FF
21
21
21
21
21
21
ENDCHAR
STARTCHAR 0128
ENCODING 296
SWIDTH 120 0
DWIDTH 2 0
BBX 4 10 -1 0
BITMAP
F0
00
00
20
20
20
20
20
20
20
ENDCHAR
STARTCHAR 0129
ENCODING 297
SWIDTH 120 0
DWIDTH 2 0
BBX 4 10 -1 0
BITMAP
F0
00
00
20
20
20
20
20
20
20
ENDCHAR
STARTCHAR 012A
ENCODING 298
SWIDTH 120 0
DWIDTH 2 0
BBX 5 10 -1 0
BITMAP
F8
00
00
20
20
20
20
20
20
20
ENDCHAR
STARTCHAR 012B
ENCODING 299
SWIDTH 120 0
DWIDTH 2 0
BBX 5 10 -1 0
BITMAP
F8
00
00
20
20
20
20
20
20
20
ENDCHAR
STARTCHAR 012E
ENCODING 302
SWIDTH 120 0
DWIDTH 2 0
BBX 4 16 -1 -3
BITMAP
20
70
20
10
00
00
20
20
20
20
20
20
20
40
80
60
ENDCHAR
STARTCHAR 012F
ENCODING 303
SWIDTH 120 0
DWIDTH 2 0
BBX 4 16 -1 -3
BITMAP
20
70
20
10
00
00
20
20
20
20
20
20
20
40
80
60
ENDCHAR
STARTCHAR 0130
ENCODING 304
SWIDTH 120 0
DWIDTH 2 0
BBX 3 11 0 0
BITMAP
40
E0
40
00
40
40
40
40
40
40
40
ENDCHAR
STARTCHAR 0139
ENCODING 313
SWIDTH 420 0
DWIDTH 7 0
BBX 6 15 1 0
BITMAP
40
80
00
80
80
80
80
80
80
80
80
80
80
80
FC
ENDCHAR
STARTCHAR 013A
ENCODING 314
SWIDTH 420 0
DWIDTH 7 0
BBX 6 15 1 0
BITMAP
40
80
00
80
80
80
80
80
80
80
80
80
80
80
FC
ENDCHAR
STARTCHAR 013D
ENCODING 317
SWIDTH 420 0
DWIDTH 7 0
BBX 7 15 0 0
BITMAP
A0
E0
00
40
40
40
40
40
40
40
40
40
40
40
7E
ENDCHAR
STARTCHAR 013E
ENCODING 318
SWIDTH 420 0
DWIDTH 7 0
BBX 7 15 0 0
BITMAP
A0
E0
00
40
40
40
40
40
40
40
40
40
40
40
7E
ENDCHAR
STARTCHAR 0141
ENCODING 321
SWIDTH 420 0
DWIDTH 7 0
BBX 8 12 0 0
BITMAP
20
20
20
20
20
38
60
A0
20
20
20
3F
ENDCHAR
STARTCHAR 0142
ENCODING 322
SWIDTH 420 0
DWIDTH 7 0
BBX 8 12 0 0
BITMAP
20
20
20
20
20
38
60
A0
20
20
20
3F
ENDCHAR
STARTCHAR 0143
ENCODING 323
SWIDTH 480 0
DWIDTH 8 0
BBX 7 15 1 0
BITMAP
08
10
00
86
C6
E6
96
8E
86
86
86
86
86
86
86
ENDCHAR
STARTCHAR 0144
ENCODING 324
SWIDTH 480 0
DWIDTH 8 0
BBX 7 15 1 0
BITMAP
08
10
00
86
C6
E6
96
8E
86
86
86
86
86
86
86
ENDCHAR
STARTCHAR 0147
ENCODING 327
SWIDTH 480 0
DWIDTH 8 0
BBX 7 15 1 0
BITMAP
48
30
00
86
C6
E6
96
8E
86
86
86
86
86
86
86
ENDCHAR
STARTCHAR 0148
ENCODING 328
SWIDTH 480 0
DWIDTH 8 0
BBX 7 15 1 0
BITMAP
48
30
00
86
C6
E6
96
8E
86
86
86
86
86
86
86
ENDCHAR
STARTCHAR 014C
ENCODING 332
SWIDTH 780 0
DWIDTH 13 0
BBX 12 14 1 0
BITMAP
1F00
0000
1F00
31C0
4060
C020
8030
8010
8010
8010
8030
4060
60C0
1F80
ENDCHAR
STARTCHAR 014D
ENCODING 333
SWIDTH 780 0
DWIDTH 13 0
BBX 12 14 1 0
BITMAP
1F00
0000
1F00
31C0
4060
C020
8030
8010
8010
8010
8030
4060
60C0
1F80
ENDCHAR
STARTCHAR 0150
ENCODING 336
SWIDTH 780 0
DWIDTH 13 0
BBX 12 15 1 0
BITMAP
0480
0900
0000
1F00
31C0
4060
C020
8030
8010
8010
8010
8030
4060
60C0
1F80
ENDCHAR
STARTCHAR 0151
ENCODING 337
SWIDTH 780 0
DWIDTH 13 0
BBX 12 15 1 0
BITMAP
0480
0900
0000
1F00
31C0
4060
C020
8030
8010
8010
8010
8030
4060
60C0
1F80
ENDCHAR
STARTCHAR 0154
ENCODING 340
SWIDTH 540 0
DWIDTH 9 0
BBX 9 15 0 0
BITMAP
0400
0800
0000
3C00
2700
2180
2080
2080
2180
FF00
2300
2100
2100
2100
2100
ENDCHAR
STARTCHAR 0155
ENCODING 341
SWIDTH 540 0
DWIDTH 9 0
BBX 9 15 0 0
BITMAP
0400
0800
0000
3C00
2700
2180
2080
2080
2180
FF00
2300
2100
2100
2100
2100
ENDCHAR
STARTCHAR 0158
ENCODING 344
SWIDTH 540 0
DWIDTH 9 0
BBX 9 15 0 0
BITMAP
1200
1C00
0000
3C00
2700
2180
2080
2080
2180
FF00
2300
2100
2100
2100
2100
ENDCHAR
STARTCHAR 0159
ENCODING 345
SWIDTH 540 0
DWIDTH 9 0
BBX 9 15 0 0
BITMAP
1200
1C00
0000
3C00
2700
2180
2080
2080
2180
FF00
2300
2100
2100
2100
2100
ENDCHAR
STARTCHAR 015A
ENCODING 346
SWIDTH 480 0
DWIDTH 8 0
BBX 7 15 1 0
BITMAP
10
10
00
78
CC
84
80
40
30
18
04
06
86
C4
7C
ENDCHAR
STARTCHAR 015B
ENCODING 347
SWIDTH 480 0
DWIDTH 8 0
BBX 7 15 1 0
BITMAP
10
10
00
78
CC
84
80
40
30
18
04
06
86
C4
7C
ENDCHAR
STARTCHAR 015E
ENCODING 350
SWIDTH 480 0
DWIDTH 8 0
BBX 7 16 1 -4
BITMAP
78
CC
84
80
40
30
18
04
06
86
C4
78
20
10
48
30
ENDCHAR
STARTCHAR 015F
ENCODING 351
SWIDTH 480 0
DWIDTH 8 0
BBX 7 16 1 -4
BITMAP
78
CC
84
80
40
30
18
04
06
86
C4
78
20
10
48
30
ENDCHAR
STARTCHAR 0160
ENCODING 352
SWIDTH 480 0
DWIDTH 8 0
BBX 7 15 1 0
BITMAP
48
30
00
78
CC
84
80
40
30
18
04
06
86
C4
7C
ENDCHAR
STARTCHAR 0161
ENCODING 353
SWIDTH 480 0
DWIDTH 8 0
BBX 7 15 1 0
BITMAP
48
30
00
78
CC
84
80
40
30
18
04
06
86
C4
7C
ENDCHAR
STARTCHAR 0162
ENCODING 354
SWIDTH 480 0
DWIDTH 8 0
BBX 8 16 0 -4
BITMAP
FF
18
18
18
18
18
18
18
18
18
18
18
10
08
28
10
ENDCHAR
STARTCHAR 0163
ENCODING 355
SWIDTH 480 0
DWIDTH 8 0
BBX 8 16 0 -4
BITMAP
FF
18
18
18
18
18
18
18
18
18
18
18
10
08
28
10
ENDCHAR
STARTCHAR 0164
ENCODING 356
SWIDTH 480 0
DWIDTH 8 0
BBX 8 15 0 0
BITMAP
24
18
00
FF
18
18
18
18
18
18
18
18
18
18
18
ENDCHAR
STARTCHAR 0165
ENCODING 357
SWIDTH 480 0
DWIDTH 8 0
BBX 8 15 0 0
BITMAP
24
18
00
FF
18
18
18
18
18
18
18
18
18
18
18
ENDCHAR
STARTCHAR 0168
ENCODING 360
SWIDTH 480 0
DWIDTH 8 0
BBX 7 15 1 0
BITMAP
60
10
00
86
86
86
86
86
86
86
86
86
84
C4
78
ENDCHAR
STARTCHAR 0169
ENCODING 361
SWIDTH 480 0
DWIDTH 8 0
BBX 7 15 1 0
BITMAP
60
10
00
86
86
86
86
86
86
86
86
86
84
C4
78
ENDCHAR
STARTCHAR 016A
ENCODING 362
SWIDTH 480 0
DWIDTH 8 0
BBX 7 14 1 0
BITMAP
78
00
86
86
86
86
86
86
86
86
86
84
C4
78
ENDCHAR
STARTCHAR 016B
ENCODING 363
SWIDTH 480 0
DWIDTH 8 0
BBX 7 14 1 0
BITMAP
78
00
86
86
86
86
86
86
86
86
86
84
C4
78
ENDCHAR
STARTCHAR 016E
ENCODING 366
SWIDTH 480 0
DWIDTH 8 0
BBX 7 16 1 0
BITMAP
30
48
28
10
86
86
86
86
86
86
86
86
86
84
C4
78
ENDCHAR
STARTCHAR 016F
ENCODING 367
SWIDTH 480 0
DWIDTH 8 0
BBX 7 16 1 0
BITMAP
30
48
28
10
86
86
86
86
86
86
86
86
86
84
C4
78
ENDCHAR
STARTCHAR 0170
ENCODING 368
SWIDTH 480 0
DWIDTH 8 0
BBX 7 15 1 0
BITMAP
24
28
00
86
86
86
86
86
86
86
86
86
84
C4
78
ENDCHAR
STARTCHAR 0171
ENCODING 369
SWIDTH 480 0
DWIDTH 8 0
BBX 7 15 1 0
BITMAP
24
28
00
86
86
86
86
86
86
86
86
86
84
C4
78
ENDCHAR
STARTCHAR 0172
ENCODING 370
SWIDTH 480 0
DWIDTH 8 0
BBX 7 15 1 -3
BITMAP
86
86
86
86
86
86
86
86
86
84
C4
78
20
40
38
ENDCHAR
STARTCHAR 0173
ENCODING 371
SWIDTH 480 0
DWIDTH 8 0
BBX 7 15 1 -3
BITMAP
86
86
86
86
86
86
86
86
86
84
C4
78
20
40
38
ENDCHAR
STARTCHAR 0176
ENCODING 374
SWIDTH 480 0
DWIDTH 8 0
BBX 7 15 1 0
BITMAP
30
48
00
86
86
86
86
86
84
84
C4
78
30
30
30
ENDCHAR
STARTCHAR 0177
ENCODING 375
SWIDTH 480 0
DWIDTH 8 0
BBX 7 15 1 0
BITMAP
30
48
00
86
86
86
86
86
84
84
C4
78
30
30
30
ENDCHAR
STARTCHAR 0178
ENCODING 376
SWIDTH 480 0
DWIDTH 8 0
BBX 7 15 1 0
BITMAP
4C
EC
40
86
86
86
86
86
84
84
C4
78
30
30
30
ENDCHAR
STARTCHAR 0179
ENCODING 377
SWIDTH 480 0
DWIDTH 8 0
BBX 8 15 0 0
BITMAP
04
08
00
FF
03
02
04
0C
08
18
10
20
60
40
FF
ENDCHAR
STARTCHAR 017A
ENCODING 378
SWIDTH 480 0
DWIDTH 8 0
BBX 8 15 0 0
BITMAP
04
08
00
FF
03
02
04
0C
08
18
10
20
60
40
FF
ENDCHAR
STARTCHAR 017B
ENCODING 379
SWIDTH 480 0
DWIDTH 8 0
BBX 8 15 0 0
BITMAP
18
18
00
FF
03
02
04
0C
08
18
10
20
60
40
FF
ENDCHAR
STARTCHAR 017C
ENCODING 380
SWIDTH 480 0
DWIDTH 8 0
BBX 8 15 0 0
BITMAP
18
18
00
FF
03
02
04
0C
08
18
10
20
60
40
FF
ENDCHAR
STARTCHAR 017D
ENCODING 381
SWIDTH 480 0
DWIDTH 8 0
BBX 8 15 0 0
BITMAP
24
18
00
FF
03
02
04
0C
08
18
10
20
60
40
FF
ENDCHAR
STARTCHAR 017E
ENCODING 382
SWIDTH 480 0
DWIDTH 8 0
BBX 8 15 0 0
BITMAP
24
18
00
FF
03
02
04
0C
08
18
10
20
60
40
FF
ENDCHAR
STARTCHAR 01A0
ENCODING 416
SWIDTH 780 0
DWIDTH 13 0
BBX 12 13 1 0
BITMAP
0040
1FC0
31C0
4060
C020
8030
8010
8010
8010
8030
4060
60C0
1F80
ENDCHAR
STARTCHAR 01A1
ENCODING 417
SWIDTH 780 0
DWIDTH 13 0
BBX 12 13 1 0
BITMAP
0040
1FC0
31C0
4060
C020
8030
8010
8010
8010
8030
4060
60C0
1F80
ENDCHAR
STARTCHAR 01AF
ENCODING 431
SWIDTH 480 0
DWIDTH 8 0
BBX 8 13 1 0
BITMAP
01
86
86
86
86
86
86
86
86
86
84
C4
78
ENDCHAR
STARTCHAR 01B0
ENCODING 432
SWIDTH 480 0
DWIDTH 8 0
BBX 8 13 1 0
BITMAP
01
86
86
86
86
86
86
86
86
86
84
C4
78
ENDCHAR
STARTCHAR 01CD
ENCODING 461
SWIDTH 540 0
DWIDTH 9 0
BBX 8 15 1 0
BITMAP
48
30
00
38
4C
84
86
86
86
86
86
86
86
86
FF
ENDCHAR
STARTCHAR 01CE
ENCODING 462
SWIDTH 540 0
DWIDTH 9 0
BBX 8 15 1 0
BITMAP
48
30
00
38
4C
84
86
86
86
86
86
86
86
86
FF
ENDCHAR
STARTCHAR 01CF
ENCODING 463
SWIDTH 120 0
DWIDTH 2 0
BBX 5 11 -1 0
BITMAP
88
50
20
00
20
20
20
20
20
20
20
ENDCHAR
STARTCHAR 01D0
ENCODING 464
SWIDTH 120 0
DWIDTH 2 0
BBX 5 11 -1 0
BITMAP
88
50
20
00
20
20
20
20
20
20
20
ENDCHAR
STARTCHAR 01D1
ENCODING 465
SWIDTH 780 0
DWIDTH 13 0
BBX 12 15 1 0
BITMAP
0900
0600
0000
1F00
31C0
4060
C020
8030
8010
8010
8010
8030
4060
60C0
1F80
ENDCHAR
STARTCHAR 01D2
ENCODING 466
SWIDTH 780 0
DWIDTH 13 0
BBX 12 15 1 0
BITMAP
0900
0600
0000
1F00
31C0
4060
C020
8030
8010
8010
8010
8030
4060
60C0
1F80
ENDCHAR
STARTCHAR 01D3
ENCODING 467
SWIDTH 480 0
DWIDTH 8 0
BBX 7 15 1 0
BITMAP
48
30
00
86
86
86
86
86
86
86
86
86
84
C4
78
ENDCHAR
STARTCHAR 01D4
ENCODING 468
SWIDTH 480 0
DWIDTH 8 0
BBX 7 15 1 0
BITMAP
48
30
00
86
86
86
86
86
86
86
86
86
84
C4
78
ENDCHAR
STARTCHAR 02C6
ENCODING 710
SWIDTH 240 0
DWIDTH 4 0
BBX 4 2 0 13
BITMAP
60
D0
ENDCHAR
STARTCHAR 02C7
ENCODING 711
SWIDTH 240 0
DWIDTH 4 0
BBX 4 2 0 13
BITMAP
D0
70
ENDCHAR
STARTCHAR 02D8
ENCODING 728
SWIDTH 240 0
DWIDTH 4 0
BBX 4 2 0 13
BITMAP
80
F0
ENDCHAR
STARTCHAR 02D9
ENCODING 729
SWIDTH 120 0
DWIDTH 2 0
BBX 2 2 0 13
BITMAP
C0
C0
ENDCHAR
STARTCHAR 02DA
ENCODING 730
SWIDTH 180 0
DWIDTH 3 0
BBX 3 3 0 13
BITMAP
E0
A0
E0
ENDCHAR
STARTCHAR 02DB
ENCODING 731
SWIDTH 180 0
DWIDTH 3 0
BBX 3 3 0 -3
BITMAP
80
80
E0
ENDCHAR
STARTCHAR 02DC
ENCODING 732
SWIDTH 180 0
DWIDTH 3 0
BBX 4 2 0 13
BITMAP
C0
30
ENDCHAR
STARTCHAR 02DD
ENCODING 733
SWIDTH 300 0
DWIDTH 5 0
BBX 5 2 0 13
BITMAP
48
D0
ENDCHAR
STARTCHAR 0300
ENCODING 768
SWIDTH 0 0
DWIDTH 0 0
BBX 2 2 -2 13
BITMAP
80
C0
ENDCHAR
STARTCHAR 0301
ENCODING 769
SWIDTH 0 0
DWIDTH 0 0
BBX 2 2 -2 13
BITMAP
40
80
ENDCHAR
STARTCHAR 0302
ENCODING 770
SWIDTH 0 0
DWIDTH 0 0
BBX 4 2 -4 13
BITMAP
60
B0
ENDCHAR
STARTCHAR 0303
ENCODING 771
SWIDTH 0 0
DWIDTH 0 0
BBX 4 2 -4 13
BITMAP
C0
30
ENDCHAR
STARTCHAR 0304
ENCODING 772
SWIDTH 0 0
DWIDTH 0 0
BBX 5 1 -5 13
BITMAP
F8
ENDCHAR
STARTCHAR 0306
ENCODING 774
SWIDTH 0 0
DWIDTH 0 0
BBX 4 2 -4 13
BITMAP
10
F0
ENDCHAR
STARTCHAR 0307
ENCODING 775
SWIDTH 0 0
DWIDTH 0 0
BBX 2 2 -2 13
BITMAP
C0
C0
ENDCHAR
STARTCHAR 0308
ENCODING 776
SWIDTH 0 0
DWIDTH 0 0
BBX 6 3 -6 12
BITMAP
4C
EC
40
ENDCHAR
STARTCHAR 0309
ENCODING 777
SWIDTH 0 0
DWIDTH 0 0
BBX 1 3 -1 13
BITMAP
80
80
80
ENDCHAR
STARTCHAR 030A
ENCODING 778
SWIDTH 0 0
DWIDTH 0 0
BBX 3 3 -3 13
BITMAP
E0
A0
E0
ENDCHAR
STARTCHAR 030B
ENCODING 779
SWIDTH 0 0
DWIDTH 0 0
BBX 5 2 -5 13
BITMAP
48
90
ENDCHAR
STARTCHAR 030C
ENCODING 780
SWIDTH 0 0
DWIDTH 0 0
BBX 4 2 -4 13
BITMAP
B0
E0
ENDCHAR
STARTCHAR 031B
ENCODING 795
SWIDTH 0 0
DWIDTH 0 0
BBX 2 2 -2 11
BITMAP
40
80
ENDCHAR
STARTCHAR 0323
ENCODING 803
SWIDTH 0 0
DWIDTH 0 0
BBX 2 2 -2 -4
BITMAP
C0
C0
ENDCHAR
STARTCHAR 0326
ENCODING 806
SWIDTH 0 0
DWIDTH 0 0
BBX 2 3 -2 -4
BITMAP
40
80
80
ENDCHAR
STARTCHAR 0327
ENCODING 807
SWIDTH 0 0
DWIDTH 0 0
BBX 4 4 -4 -4
BITMAP
20
10
90
60
ENDCHAR
STARTCHAR 0328
ENCODING 808
SWIDTH 0 0
DWIDTH 0 0
BBX 3 3 -3 -3
BITMAP
80
80
E0
ENDCHAR
STARTCHAR 0335
ENCODING 821
SWIDTH 0 0
DWIDTH 0 0
BBX 5 1 -5 3
BITMAP
F8
ENDCHAR
STARTCHAR 1EA0
ENCODING 7840
SWIDTH 540 0
DWIDTH 9 0
BBX 8 16 1 -4
BITMAP
38
4C
84
86
86
86
86
86
86
86
86
FF
00
00
30
30
ENDCHAR
STARTCHAR 1EA1
ENCODING 7841
SWIDTH 540 0
DWIDTH 9 0
BBX 8 16 1 -4
BITMAP
38
4C
84
86
86
86
86
86
86
86
86
FF
00
00
30
30
ENDCHAR
STARTCHAR 1EA2
ENCODING 7842
SWIDTH 540 0
DWIDTH 9 0
BBX 8 16 1 0
BITMAP
10
10
20
00
38
4C
84
86
86
86
86
86
86
86
86
FF
ENDCHAR
STARTCHAR 1EA3
ENCODING 7843
SWIDTH 540 0
DWIDTH 9 0
BBX 8 16 1 0
BITMAP
10
10
20
00
38
4C
84
86
86
86
86
86
86
86
86
FF
ENDCHAR
STARTCHAR 1EA4
ENCODING 7844
SWIDTH 540 0
DWIDTH 9 0
BBX 8 16 1 0
BITMAP
02
34
68
00
38
4C
84
86
86
86
86
86
86
86
86
FF
ENDCHAR
STARTCHAR 1EA5
ENCODING 7845
SWIDTH 540 0
DWIDTH 9 0
BBX 8 16 1 0
BITMAP
02
34
68
00
38
4C
84
86
86
86
86
86
86
86
86
FF
ENDCHAR
STARTCHAR 1EA6
ENCODING 7846
SWIDTH 540 0
DWIDTH 9 0
BBX 9 16 0 0
BITMAP
8000
5800
3400
0000
1C00
2600
4200
4300
4300
4300
4300
4300
4300
4300
4300
7F80
ENDCHAR
STARTCHAR 1EA7
ENCODING 7847
SWIDTH 540 0
DWIDTH 9 0
BBX 9 16 0 0
BITMAP
8000
5800
3400
0000
1C00
2600
4200
4300
4300
4300
4300
4300
4300
4300
4300
7F80
ENDCHAR
STARTCHAR 1EA8
ENCODING 7848
SWIDTH 540 0
DWIDTH 9 0
BBX 8 17 1 0
BITMAP
04
04
34
68
00
38
4C
84
86
86
86
86
86
86
86
86
FF
ENDCHAR
STARTCHAR 1EA9
ENCODING 7849
SWIDTH 540 0
DWIDTH 9 0
BBX 8 17 1 0
BITMAP
04
04
34
68
00
38
4C
84
86
86
86
86
86
86
86
86
FF
ENDCHAR
STARTCHAR 1EAA
ENCODING 7850
SWIDTH 540 0
DWIDTH 9 0
BBX 8 16 1 1
BITMAP
0E
30
68
00
38
4C
84
86
86
86
86
86
86
86
86
FF
ENDCHAR
STARTCHAR 1EAB
ENCODING 7851
SWIDTH 540 0
DWIDTH 9 0
BBX 8 16 1 1
BITMAP
0E
30
68
00
38
4C
84
86
86
86
86
86
86
86
86
FF
ENDCHAR
STARTCHAR 1EAC
ENCODING 7852
SWIDTH 540 0
DWIDTH 9 0
BBX 8 19 1 -4
BITMAP
30
68
00
38
4C
84
86
86
86
86
86
86
86
86
FF
00
00
30
30
ENDCHAR
STARTCHAR 1EAD
ENCODING 7853
SWIDTH 540 0
DWIDTH 9 0
BBX 8 19 1 -4
BITMAP
30
68
00
38
4C
84
86
86
86
86
86
86
86
86
FF
00
00
30
30
ENDCHAR
STARTCHAR 1EAE
ENCODING 7854
SWIDTH 540 0
DWIDTH 9 0
BBX 8 17 1 0
BITMAP
08
10
40
28
10
38
4C
84
86
86
86
86
86
86
86
86
FF
ENDCHAR
STARTCHAR 1EAF
ENCODING 7855
SWIDTH 540 0
DWIDTH 9 0
BBX 8 17 1 0
BITMAP
08
10
40
28
10
38
4C
84
86
86
86
86
86
86
86
86
FF
ENDCHAR
STARTCHAR 1EB0
ENCODING 7856
SWIDTH 540 0
DWIDTH 9 0
BBX 8 17 1 0
BITMAP
40
20
40
28
10
38
4C
84
86
86
86
86
86
86
86
86
FF
ENDCHAR
STARTCHAR 1EB1
ENCODING 7857
SWIDTH 540 0
DWIDTH 9 0
BBX 8 17 1 0
BITMAP
40
20
40
28
10
38
4C
84
86
86
86
86
86
86
86
86
FF
ENDCHAR
STARTCHAR 1EB2
ENCODING 7858
SWIDTH 540 0
DWIDTH 9 0
BBX 8 17 1 0
BITMAP
10
10
50
28
10
38
4C
84
86
86
86
86
86
86
86
86
FF
ENDCHAR
STARTCHAR 1EB3
ENCODING 7859
SWIDTH 540 0
DWIDTH 9 0
BBX 8 17 1 0
BITMAP
10
10
50
28
10
38
4C
84
86
86
86
86
86
86
86
86
FF
ENDCHAR
STARTCHAR 1EB4
ENCODING 7860
SWIDTH 540 0
DWIDTH 9 0
BBX 8 17 1 0
BITMAP
20
18
40
28
10
38
4C
84
86
86
86
86
86
86
86
86
FF
ENDCHAR
STARTCHAR 1EB5
ENCODING 7861
SWIDTH 540 0
DWIDTH 9 0
BBX 8 17 1 0
BITMAP
20
18
40
28
10
38
4C
84
86
86
86
86
86
86
86
86
FF
ENDCHAR
STARTCHAR 1EB6
ENCODING 7862
SWIDTH 540 0
DWIDTH 9 0
BBX 8 19 1 -4
BITMAP
40
28
10
38
4C
84
86
86
86
86
86
86
86
86
FF
00
00
30
30
ENDCHAR
STARTCHAR 1EB7
ENCODING 7863
SWIDTH 540 0
DWIDTH 9 0
BBX 8 19 1 -4
BITMAP
40
28
10
38
4C
84
86
86
86
86
86
86
86
86
FF
00
00
30
30
ENDCHAR
STARTCHAR 1EB8
ENCODING 7864
SWIDTH 480 0
DWIDTH 8 0
BBX 8 16 0 -4
BITMAP
3C
20
20
20
20
20
FE
20
20
20
20
3F
00
00
0C
0C
ENDCHAR
STARTCHAR 1EB9
ENCODING 7865
SWIDTH 480 0
DWIDTH 8 0
BBX 8 16 0 -4
BITMAP
3C
20
20
20
20
20
FE
20
20
20
20
3F
00
00
0C
0C
ENDCHAR
STARTCHAR 1EBA
ENCODING 7866
SWIDTH 480 0
DWIDTH 8 0
BBX 8 15 0 1
BITMAP
10
10
00
3C
20
20
20
20
20
FE
20
20
20
20
3F
ENDCHAR
STARTCHAR 1EBB
ENCODING 7867
SWIDTH 480 0
DWIDTH 8 0
BBX 8 15 0 1
BITMAP
10
10
00
3C
20
20
20
20
20
FE
20
20
20
20
3F
ENDCHAR
STARTCHAR 1EBC
ENCODING 7868
SWIDTH 480 0
DWIDTH 8 0
BBX 8 15 0 0
BITMAP
30
08
00
3C
20
20
20
20
20
FE
20
20
20
20
3F
ENDCHAR
STARTCHAR 1EBD
ENCODING 7869
SWIDTH 480 0
DWIDTH 8 0
BBX 8 15 0 0
BITMAP
30
08
00
3C
20
20
20
20
20
FE
20
20
20
20
3F
ENDCHAR
STARTCHAR 1EBE
ENCODING 7870
SWIDTH 480 0
DWIDTH 8 0
BBX 8 16 0 0
BITMAP
01
1A
2C
00
3C
20
20
20
20
20
FE
20
20
20
20
3F
ENDCHAR
STARTCHAR 1EBF
ENCODING 7871
SWIDTH 480 0
DWIDTH 8 0
BBX 8 16 0 0
BITMAP
01
1A
2C
00
3C
20
20
20
20
20
FE
20
20
20
20
3F
ENDCHAR
STARTCHAR 1EC0
ENCODING 7872
SWIDTH 480 0
DWIDTH 8 0
BBX 8 16 0 0
BITMAP
80
18
2C
00
3C
20
20
20
20
20
FE
20
20
20
20
3F
ENDCHAR
STARTCHAR 1EC1
ENCODING 7873
SWIDTH 480 0
DWIDTH 8 0
BBX 8 16 0 0
BITMAP
80
18
2C
00
3C
20
20
20
20
20
FE
20
20
20
20
3F
ENDCHAR
STARTCHAR 1EC2
ENCODING 7874
SWIDTH 480 0
DWIDTH 8 0
BBX 8 17 0 0
BITMAP
02
02
1A
2C
00
3C
20
20
20
20
20
FE
20
20
20
20
3F
ENDCHAR
STARTCHAR 1EC3
ENCODING 7875
SWIDTH 480 0
DWIDTH 8 0
BBX 8 17 0 0
BITMAP
02
02
1A
2C
00
3C
20
20
20
20
20
FE
20
20
20
20
3F
ENDCHAR
STARTCHAR 1EC4
ENCODING 7876
SWIDTH 480 0
DWIDTH 8 0
BBX 8 16 0 1
BITMAP
0F
18
2C
00
3C
20
20
20
20
20
FE
20
20
20
20
3F
ENDCHAR
STARTCHAR 1EC5
ENCODING 7877
SWIDTH 480 0
DWIDTH 8 0
BBX 8 16 0 1
BITMAP
0F
18
2C
00
3C
20
20
20
20
20
FE
20
20
20
20
3F
ENDCHAR
STARTCHAR 1EC6
ENCODING 7878
SWIDTH 480 0
DWIDTH 8 0
BBX 8 19 0 -4
BITMAP
18
2C
00
3C
20
20
20
20
20
FE
20
20
20
20
3F
00
00
0C
0C
ENDCHAR
STARTCHAR 1EC7
ENCODING 7879
SWIDTH 480 0
DWIDTH 8 0
BBX 8 19 0 -4
BITMAP
18
2C
00
3C
20
20
20
20
20
FE
20
20
20
20
3F
00
00
0C
0C
ENDCHAR
STARTCHAR 1EC8
ENCODING 7880
SWIDTH 120 0
DWIDTH 2 0
BBX 1 11 1 0
BITMAP
80
80
80
00
80
80
80
80
80
80
80
ENDCHAR
STARTCHAR 1EC9
ENCODING 7881
SWIDTH 120 0
DWIDTH 2 0
BBX 1 11 1 0
BITMAP
80
80
80
00
80
80
80
80
80
80
80
ENDCHAR
STARTCHAR 1ECA
ENCODING 7882
SWIDTH 120 0
DWIDTH 2 0
BBX 3 17 0 -4
BITMAP
40
E0
40
20
00
00
40
40
40
40
40
40
40
00
00
40
E0
ENDCHAR
STARTCHAR 1ECB
ENCODING 7883
SWIDTH 120 0
DWIDTH 2 0
BBX 3 17 0 -4
BITMAP
40
E0
40
20
00
00
40
40
40
40
40
40
40
00
00
40
E0
ENDCHAR
STARTCHAR 1ECC
ENCODING 7884
SWIDTH 780 0
DWIDTH 13 0
BBX 12 16 1 -4
BITMAP
1F00
31C0
4060
C020
8030
8010
8010
8010
8030
4060
60C0
1F80
0000
0000
0600
0600
ENDCHAR
STARTCHAR 1ECD
ENCODING 7885
SWIDTH 780 0
DWIDTH 13 0
BBX 12 16 1 -4
BITMAP
1F00
31C0
4060
C020
8030
8010
8010
8010
8030
4060
60C0
1F80
0000
0000
0600
0600
ENDCHAR
STARTCHAR 1ECE
ENCODING 7886
SWIDTH 780 0
DWIDTH 13 0
BBX 12 16 1 0
BITMAP
0400
0400
0400
0000
1F00
31C0
4060
C020
8030
8010
8010
8010
8030
4060
60C0
1F80
ENDCHAR
STARTCHAR 1ECF
ENCODING 7887
SWIDTH 780 0
DWIDTH 13 0
BBX 12 16 1 0
BITMAP
0400
0400
0400
0000
1F00
31C0
4060
C020
8030
8010
8010
8010
8030
4060
60C0
1F80
ENDCHAR
STARTCHAR 1ED0
ENCODING 7888
SWIDTH 780 0
DWIDTH 13 0
BBX 12 16 1 0
BITMAP
0040
0680
0B00
0000
1F00
31C0
4060
C020
8030
8010
8010
8010
8030
4060
60C0
1F80
ENDCHAR
STARTCHAR 1ED1
ENCODING 7889
SWIDTH 780 0
DWIDTH 13 0
BBX 12 16 1 0
BITMAP
0040
0680
0B00
0000
1F00
31C0
4060
C020
8030
8010
8010
8010
8030
4060
60C0
1F80
ENDCHAR
STARTCHAR 1ED2
ENCODING 7890
SWIDTH 780 0
DWIDTH 13 0
BBX 12 16 1 0
BITMAP
2000
2600
0B00
0000
1F00
31C0
4060
C020
8030
8010
8010
8010
8030
4060
60C0
1F80
ENDCHAR
STARTCHAR 1ED3
ENCODING 7891
SWIDTH 780 0
DWIDTH 13 0
BBX 12 16 1 0
BITMAP
2000
2600
0B00
0000
1F00
31C0
4060
C020
8030
8010
8010
8010
8030
4060
60C0
1F80
ENDCHAR
STARTCHAR 1ED4
ENCODING 7892
SWIDTH 780 0
DWIDTH 13 0
BBX 12 17 1 0
BITMAP
0080
0080
0680
0B00
0000
1F00
31C0
4060
C020
8030
8010
8010
8010
8030
4060
60C0
1F80
ENDCHAR
STARTCHAR 1ED5
ENCODING 7893
SWIDTH 780 0
DWIDTH 13 0
BBX 12 17 1 0
BITMAP
0080
0080
0680
0B00
0000
1F00
31C0
4060
C020
8030
8010
8010
8010
8030
4060
60C0
1F80
ENDCHAR
STARTCHAR 1ED6
ENCODING 7894
SWIDTH 780 0
DWIDTH 13 0
BBX 12 16 1 1
BITMAP
03C0
0600
0B00
0000
1F00
31C0
4060
C020
8030
8010
8010
8010
8030
4060
60C0
1F80
ENDCHAR
STARTCHAR 1ED7
ENCODING 7895
SWIDTH 780 0
DWIDTH 13 0
BBX 12 16 1 1
BITMAP
03C0
0600
0B00
0000
1F00
31C0
4060
C020
8030
8010
8010
8010
8030
4060
60C0
1F80
ENDCHAR
STARTCHAR 1ED8
ENCODING 7896
SWIDTH 780 0
DWIDTH 13 0
BBX 12 19 1 -4
BITMAP
0600
0B00
0000
1F00
31C0
4060
C020
8030
8010
8010
8010
8030
4060
60C0
1F80
0000
0000
0600
0600
ENDCHAR
STARTCHAR 1ED9
ENCODING 7897
SWIDTH 780 0
DWIDTH 13 0
BBX 12 19 1 -4
BITMAP
0600
0B00
0000
1F00
31C0
4060
C020
8030
8010
8010
8010
8030
4060
60C0
1F80
0000
0000
0600
0600
ENDCHAR
STARTCHAR 1EDA
ENCODING 7898
SWIDTH 780 0
DWIDTH 13 0
BBX 12 15 1 0
BITMAP
0200
0400
0040
1FC0
31C0
4060
C020
8030
8010
8010
8010
8030
4060
60C0
1F80
ENDCHAR
STARTCHAR 1EDB
ENCODING 7899
SWIDTH 780 0
DWIDTH 13 0
BBX 12 15 1 0
BITMAP
0200
0400
0040
1FC0
31C0
4060
C020
8030
8010
8010
8010
8030
4060
60C0
1F80
ENDCHAR
STARTCHAR 1EDC
ENCODING 7900
SWIDTH 780 0
DWIDTH 13 0
BBX 12 15 1 0
BITMAP
0800
0400
0040
1FC0
31C0
4060
C020
8030
8010
8010
8010
8030
4060
60C0
1F80
ENDCHAR
STARTCHAR 1EDD
ENCODING 7901
SWIDTH 780 0
DWIDTH 13 0
BBX 12 15 1 0
BITMAP
0800
0400
0040
1FC0
31C0
4060
C020
8030
8010
8010
8010
8030
4060
60C0
1F80
ENDCHAR
STARTCHAR 1EDE
ENCODING 7902
SWIDTH 780 0
DWIDTH 13 0
BBX 12 16 1 0
BITMAP
0400
0400
0400
0040
1FC0
31C0
4060
C020
8030
8010
8010
8010
8030
4060
60C0
1F80
ENDCHAR
STARTCHAR 1EDF
ENCODING 7903
SWIDTH 780 0
DWIDTH 13 0
BBX 12 16 1 0
BITMAP
0400
0400
0400
0040
1FC0
31C0
4060
C020
8030
8010
8010
8010
8030
4060
60C0
1F80
ENDCHAR
STARTCHAR 1EE0
ENCODING 7904
SWIDTH 780 0
DWIDTH 13 0
BBX 12 15 1 0
BITMAP
0800
0600
0040
1FC0
31C0
4060
C020
8030
8010
8010
8010
8030
4060
60C0
1F80
ENDCHAR
STARTCHAR 1EE1
ENCODING 7905
SWIDTH 780 0
DWIDTH 13 0
BBX 12 15 1 0
BITMAP
0800
0600
0040
1FC0
31C0
4060
C020
8030
8010
8010
8010
8030
4060
60C0
1F80
ENDCHAR
STARTCHAR 1EE2
ENCODING 7906
SWIDTH 780 0
DWIDTH 13 0
BBX 12 17 1 -4
BITMAP
0040
1FC0
31C0
4060
C020
8030
8010
8010
8010
8030
4060
60C0
1F80
0000
0000
0600
0600
ENDCHAR
STARTCHAR 1EE3
ENCODING 7907
SWIDTH 780 0
DWIDTH 13 0
BBX 12 17 1 -4
BITMAP
0040
1FC0
31C0
4060
C020
8030
8010
8010
8010
8030
4060
60C0
1F80
0000
0000
0600
0600
ENDCHAR
STARTCHAR 1EE4
ENCODING 7908
SWIDTH 480 0
DWIDTH 8 0
BBX 7 16 1 -4
BITMAP
86
86
86
86
86
86
86
86
86
84
C4
78
00
00
30
30
ENDCHAR
STARTCHAR 1EE5
ENCODING 7909
SWIDTH 480 0
DWIDTH 8 0
BBX 7 16 1 -4
BITMAP
86
86
86
86
86
86
86
86
86
84
C4
78
00
00
30
30
ENDCHAR
STARTCHAR 1EE6
ENCODING 7910
SWIDTH 480 0
DWIDTH 8 0
BBX 7 16 1 0
BITMAP
10
10
20
00
86
86
86
86
86
86
86
86
86
84
C4
78
ENDCHAR
STARTCHAR 1EE7
ENCODING 7911
SWIDTH 480 0
DWIDTH 8 0
BBX 7 16 1 0
BITMAP
10
10
20
00
86
86
86
86
86
86
86
86
86
84
C4
78
ENDCHAR
STARTCHAR 1EE8
ENCODING 7912
SWIDTH 480 0
DWIDTH 8 0
BBX 8 15 1 0
BITMAP
18
10
01
86
86
86
86
86
86
86
86
86
84
C4
78
ENDCHAR
STARTCHAR 1EE9
ENCODING 7913
SWIDTH 480 0
DWIDTH 8 0
BBX 8 15 1 0
BITMAP
18
10
01
86
86
86
86
86
86
86
86
86
84
C4
78
ENDCHAR
STARTCHAR 1EEA
ENCODING 7914
SWIDTH 480 0
DWIDTH 8 0
BBX 8 15 1 0
BITMAP
20
20
01
86
86
86
86
86
86
86
86
86
84
C4
78
ENDCHAR
STARTCHAR 1EEB
ENCODING 7915
SWIDTH 480 0
DWIDTH 8 0
BBX 8 15 1 0
BITMAP
20
20
01
86
86
86
86
86
86
86
86
86
84
C4
78
ENDCHAR
STARTCHAR 1EEC
ENCODING 7916
SWIDTH 480 0
DWIDTH 8 0
BBX 8 16 1 0
BITMAP
10
10
20
01
86
86
86
86
86
86
86
86
86
84
C4
78
ENDCHAR
STARTCHAR 1EED
ENCODING 7917
SWIDTH 480 0
DWIDTH 8 0
BBX 8 16 1 0
BITMAP
10
10
20
01
86
86
86
86
86
86
86
86
86
84
C4
78
ENDCHAR
STARTCHAR 1EEE
ENCODING 7918
SWIDTH 480 0
DWIDTH 8 0
BBX 8 15 1 0
BITMAP
60
10
01
86
86
86
86
86
86
86
86
86
84
C4
78
ENDCHAR
STARTCHAR 1EEF
ENCODING 7919
SWIDTH 480 0
DWIDTH 8 0
BBX 8 15 1 0
BITMAP
60
10
01
86
86
86
86
86
86
86
86
86
84
C4
78
ENDCHAR
STARTCHAR 1EF0
ENCODING 7920
SWIDTH 480 0
DWIDTH 8 0
BBX 8 17 1 -4
BITMAP
01
86
86
86
86
86
86
86
86
86
84
C4
78
00
00
30
30
ENDCHAR
STARTCHAR 1EF1
ENCODING 7921
SWIDTH 480 0
DWIDTH 8 0
BBX 8 17 1 -4
BITMAP
01
86
86
86
86
86
86
86
86
86
84
C4
78
00
00
30
30
ENDCHAR
STARTCHAR 1EF2
ENCODING 7922
SWIDTH 480 0
DWIDTH 8 0
BBX 7 15 1 0
BITMAP
20
20
00
86
86
86
86
86
84
84
C4
78
30
30
30
ENDCHAR
STARTCHAR 1EF3
ENCODING 7923
SWIDTH 480 0
DWIDTH 8 0
BBX 7 15 1 0
BITMAP
20
20
00
86
86
86
86
86
84
84
C4
78
30
30
30
ENDCHAR
STARTCHAR 1EF4
ENCODING 7924
SWIDTH 480 0
DWIDTH 8 0
BBX 7 16 1 -4
BITMAP
86
86
86
86
86
84
84
C4
78
30
30
30
00
00
30
30
ENDCHAR
STARTCHAR 1EF5
ENCODING 7925
SWIDTH 480 0
DWIDTH 8 0
BBX 7 16 1 -4
BITMAP
86
86
86
86
86
84
84
C4
78
30
30
30
00
00
30
30
ENDCHAR
STARTCHAR 1EF6
ENCODING 7926
SWIDTH 480 0
DWIDTH 8 0
BBX 7 16 1 0
BITMAP
10
10
20
00
86
86
86
86
86
84
84
C4
78
30
30
30
ENDCHAR
STARTCHAR 1EF7
ENCODING 7927
SWIDTH 480 0
DWIDTH 8 0
BBX 7 16 1 0
BITMAP
10
10
20
00
86
86
86
86
86
84
84
C4
78
30
30
30
ENDCHAR
STARTCHAR 1EF8
ENCODING 7928
SWIDTH 480 0
DWIDTH 8 0
BBX 7 15 1 0
BITMAP
60
10
00
86
86
86
86
86
84
84
C4
78
30
30
30
ENDCHAR
STARTCHAR 1EF9
ENCODING 7929
SWIDTH 480 0
DWIDTH 8 0
BBX 7 15 1 0
BITMAP
60
10
00
86
86
86
86
86
84
84
C4
78
30
30
30
ENDCHAR
STARTCHAR 2013
ENCODING 8211
SWIDTH 540 0
DWIDTH 9 0
BBX 8 1 1 4
BITMAP
FF
ENDCHAR
STARTCHAR 2014
ENCODING 8212
SWIDTH 780 0
DWIDTH 13 0
BBX 11 1 1 4
BITMAP
FFE0
ENDCHAR
STARTCHAR 2018
ENCODING 8216
SWIDTH 180 0
DWIDTH 3 0
BBX 2 4 1 8
BITMAP
40
40
80
80
ENDCHAR
STARTCHAR 2019
ENCODING 8217
SWIDTH 180 0
DWIDTH 3 0
BBX 2 4 1 8
BITMAP
C0
80
80
80
ENDCHAR
STARTCHAR 201A
ENCODING 8218
SWIDTH 180 0
DWIDTH 3 0
BBX 2 3 1 -2
BITMAP
C0
80
80
ENDCHAR
STARTCHAR 201C
ENCODING 8220
SWIDTH 360 0
DWIDTH 6 0
BBX 5 4 1 8
BITMAP
48
50
D0
90
ENDCHAR
STARTCHAR 201D
ENCODING 8221
SWIDTH 360 0
DWIDTH 6 0
BBX 4 4 1 8
BITMAP
D0
90
90
80
ENDCHAR
STARTCHAR 201E
ENCODING 8222
SWIDTH 360 0
DWIDTH 6 0
BBX 5 3 1 -2
BITMAP
D8
90
90
ENDCHAR
STARTCHAR 2020
ENCODING 8224
SWIDTH 360 0
DWIDTH 6 0
BBX 5 8 1 4
BITMAP
20
20
F8
20
20
20
20
20
ENDCHAR
STARTCHAR 2021
ENCODING 8225
SWIDTH 360 0
DWIDTH 6 0
BBX 5 8 1 4
BITMAP
20
20
F8
20
20
F8
20
20
ENDCHAR
STARTCHAR 2022
ENCODING 8226
SWIDTH 300 0
DWIDTH 5 0
BBX 3 3 1 3
BITMAP
E0
E0
E0
ENDCHAR
STARTCHAR 2026
ENCODING 8230
SWIDTH 600 0
DWIDTH 10 0
BBX 9 2 1 0
BITMAP
D980
D980
ENDCHAR
STARTCHAR 2030
ENCODING 8240
SWIDTH 1200 0
DWIDTH 20 0
BBX 19 12 1 0
BITMAP
706000
C84000
888000
890000
C90000
320000
040000
05F3C0
091620
111420
311660
20E3C0
ENDCHAR
STARTCHAR 2039
ENCODING 8249
SWIDTH 300 0
DWIDTH 5 0
BBX 4 8 1 1
BITMAP
30
20
40
80
C0
40
20
10
ENDCHAR
STARTCHAR 203A
ENCODING 8250
SWIDTH 300 0
DWIDTH 5 0
BBX 4 8 1 1
BITMAP
80
40
20
30
20
60
40
80
ENDCHAR
STARTCHAR 2044
ENCODING 8260
SWIDTH 600 0
DWIDTH 10 0
BBX 9 12 1 0
BITMAP
0080
0100
0300
0200
0400
0C00
0800
1000
2000
2000
4000
8000
ENDCHAR
STARTCHAR 20AC
ENCODING 8364
SWIDTH 600 0
DWIDTH 10 0
BBX 9 12 1 0
BITMAP
0780
0C80
1000
2000
2000
FE00
6000
FE00
2000
3000
1800
0780
ENDCHAR
STARTCHAR 2122
ENCODING 8482
SWIDTH 720 0
DWIDTH 12 0
BBX 11 7 1 5
BITMAP
F920
4DE0
4B60
4920
4920
4920
4920
ENDCHAR
STARTCHAR 2190
ENCODING 8592
SWIDTH 780 0
DWIDTH 13 0
BBX 12 8 1 2
BITMAP
1000
3000
6000
FFF0
FFF0
6000
3000
1000
ENDCHAR
STARTCHAR 2191
ENCODING 8593
SWIDTH 540 0
DWIDTH 9 0
BBX 7 12 1 0
BITMAP
10
38
74
D2
10
10
10
10
10
10
10
10
ENDCHAR
STARTCHAR 2192
ENCODING 8594
SWIDTH 780 0
DWIDTH 13 0
BBX 11 6 1 3
BITMAP
0080
0040
FFE0
FFE0
0040
0080
ENDCHAR
STARTCHAR 2193
ENCODING 8595
SWIDTH 540 0
DWIDTH 9 0
BBX 8 12 1 0
BITMAP
10
10
10
10
10
10
10
10
93
56
3C
18
ENDCHAR
STARTCHAR 2194
ENCODING 8596
SWIDTH 840 0
DWIDTH 14 0
BBX 12 8 1 2
BITMAP
1000
3040
6020
FFF0
FFF0
6020
3040
1000
ENDCHAR
STARTCHAR 2195
ENCODING 8597
SWIDTH 540 0
DWIDTH 9 0
BBX 8 12 1 0
BITMAP
18
3C
7E
99
18
18
18
18
99
5A
3C
18
ENDCHAR
STARTCHAR 2196
ENCODING 8598
SWIDTH 600 0
DWIDTH 10 0
BBX 8 8 1 1
BITMAP
F8
C0
A0
90
88
04
02
01
ENDCHAR
STARTCHAR 2197
ENCODING 8599
SWIDTH 600 0
DWIDTH 10 0
BBX 9 8 1 1
BITMAP
1F80
0380
0680
0C80
1880
3000
6000
C000
ENDCHAR
STARTCHAR 2198
ENCODING 8600
SWIDTH 600 0
DWIDTH 10 0
BBX 9 9 1 1
BITMAP
8000
4000
2000
1080
0880
0480
0280
0180
1F80
ENDCHAR
STARTCHAR 2199
ENCODING 8601
SWIDTH 600 0
DWIDTH 10 0
BBX 9 9 1 1
BITMAP
0180
0300
0600
8C00
9800
B000
E000
C000
F800
ENDCHAR
STARTCHAR 2202
ENCODING 8706
SWIDTH 540 0
DWIDTH 9 0
BBX 7 12 1 0
BITMAP
20
18
0C
04
02
7E
C6
82
82
82
C4
78
ENDCHAR
STARTCHAR 2205
ENCODING 8709
SWIDTH 660 0
DWIDTH 11 0
BBX 10 10 1 1
BITMAP
1E40
6180
4180
8240
8440
8840
9040
6080
6180
9E00
ENDCHAR
STARTCHAR 220F
ENCODING 8719
SWIDTH 540 0
DWIDTH 9 0
BBX 8 14 1 -2
BITMAP
FF
42
42
42
42
42
42
42
42
42
42
42
42
42
ENDCHAR
STARTCHAR 2211
ENCODING 8721
SWIDTH 420 0
DWIDTH 7 0
BBX 6 14 1 -2
BITMAP
FC
80
40
40
20
30
10
10
20
20
40
C0
80
FC
ENDCHAR
STARTCHAR 2212
ENCODING 8722
SWIDTH 540 0
DWIDTH 9 0
BBX 7 1 1 5
BITMAP
FE
ENDCHAR
STARTCHAR 221A
ENCODING 8730
SWIDTH 600 0
DWIDTH 10 0
BBX 9 14 1 -2
BITMAP
0380
0600
0400
0400
0400
0800
0800
8800
D800
5000
5000
5000
2000
2000
ENDCHAR
STARTCHAR 221E
ENCODING 8734
SWIDTH 780 0
DWIDTH 13 0
BBX 11 6 1 3
BITMAP
2080
DB60
8620
8420
CA20
71C0
ENDCHAR
STARTCHAR 222B
ENCODING 8747
SWIDTH 480 0
DWIDTH 8 0
BBX 6 14 1 -2
BITMAP
0C
08
10
10
10
10
10
20
20
20
20
20
40
C0
ENDCHAR
STARTCHAR 2248
ENCODING 8776
SWIDTH 480 0
DWIDTH 8 0
BBX 7 5 1 3
BITMAP
F0
0E
00
C0
BE
ENDCHAR
STARTCHAR 2260
ENCODING 8800
SWIDTH 540 0
DWIDTH 9 0
BBX 7 7 1 2
BITMAP
08
FE
10
10
10
FE
20
ENDCHAR
STARTCHAR 2264
ENCODING 8804
SWIDTH 540 0
DWIDTH 9 0
BBX 7 6 1 3
BITMAP
1E
E0
F0
0E
00
FE
ENDCHAR
STARTCHAR 2265
ENCODING 8805
SWIDTH 540 0
DWIDTH 9 0
BBX 7 6 1 3
BITMAP
F0
0E
1E
E0
00
FE
ENDCHAR
STARTCHAR 25CA
ENCODING 9674
SWIDTH 420 0
DWIDTH 7 0
BBX 6 10 1 1
BITMAP
30
30
48
48
84
84
48
48
30
30
ENDCHAR
ENDFONT
